<?xml version="1.0" encoding="UTF-8" standalone="no"?>
<svg viewBox="0 0 16 16" version="1.1" id="svg1092" sodipodi:docname="joomla-favicon-pinned.svg" xml:space="preserve" inkscape:version="1.2.2 (b0a84865, 2022-12-01)" xmlns:inkscape="http://www.inkscape.org/namespaces/inkscape" xmlns:sodipodi="http://sodipodi.sourceforge.net/DTD/sodipodi-0.dtd" xmlns="http://www.w3.org/2000/svg" xmlns:svg="http://www.w3.org/2000/svg"><defs id="defs1096"/><sodipodi:namedview id="namedview1094" pagecolor="#ffffff" bordercolor="#666666" borderopacity="1.0" inkscape:showpageshadow="2" inkscape:pageopacity="0.0" inkscape:pagecheckerboard="0" inkscape:deskcolor="#d1d1d1" showgrid="false" inkscape:zoom="36.725358" inkscape:cx="4.2885899" inkscape:cy="9.1898355" inkscape:window-width="1728" inkscape:window-height="1051" inkscape:window-x="0" inkscape:window-y="236" inkscape:window-maximized="0" inkscape:current-layer="svg1092"/><path sodipodi:nodetypes="cccccccccccccc" id="path4561" d="M 5.3393206,1.0145196 C 4.7997225,3.1398093 3.1401644,4.799344 1.0148733,5.3389667 c -0.65283775,1.7138415 -0.65283775,3.6081045 0,5.3219653 2.1252911,0.5396 3.7848492,2.199158 4.3244473,4.324429 1.7138634,0.652852 3.6075117,0.652852 5.3213544,0 0.53961,-2.125271 2.199169,-3.784829 4.324441,-4.324429 0.652852,-1.7138608 0.652852,-3.6081238 0,-5.3219653 -2.125272,-0.5396227 -3.784831,-2.1991574 -4.324441,-4.3244471 -1.7738121,-0.66800988 -3.68899,-0.63719387 -5.3213544,0 z M 8.000001,4.3080672 c 2.039184,-1.233e-4 3.692308,1.652994 3.692183,3.6921818 -2.48e-4,2.03895 -1.65324,3.691696 -3.692183,3.691573 C 5.9610506,11.691905 4.3080228,10.039199 4.3078101,8.000249 4.3076869,5.9610612 5.9608093,4.3079452 8.000001,4.3080672 Z" style="fill:#ff9955;fill-opacity:1;stroke:none;stroke-width:0.077739;stroke-miterlimit:4;stroke-dasharray:none" inkscape:connector-curvature="0"/></svg>