<?xml version="1.0" encoding="UTF-8" standalone="no"?>
<svg
   width="191.50133mm"
   height="42.85466mm"
   viewBox="0 0 191.50133 42.85466"
   version="1.1"
   id="svg8"
   inkscape:version="1.2 (dc2aeda, 2022-05-15)"
   sodipodi:docname="STEMFIE_Logo_Horzontal.svg"
   style="enable-background:new"
   xmlns:inkscape="http://www.inkscape.org/namespaces/inkscape"
   xmlns:sodipodi="http://sodipodi.sourceforge.net/DTD/sodipodi-0.dtd"
   xmlns="http://www.w3.org/2000/svg"
   xmlns:svg="http://www.w3.org/2000/svg"
   xmlns:rdf="http://www.w3.org/1999/02/22-rdf-syntax-ns#"
   xmlns:cc="http://creativecommons.org/ns#"
   xmlns:dc="http://purl.org/dc/elements/1.1/">
  <sodipodi:namedview
     id="base"
     pagecolor="#ffffff"
     bordercolor="#666666"
     borderopacity="1.0"
     inkscape:pageopacity="0.0"
     inkscape:pageshadow="2"
     inkscape:zoom="1.4375825"
     inkscape:cx="398.93362"
     inkscape:cy="156.16495"
     inkscape:document-units="mm"
     inkscape:current-layer="g2226"
     showgrid="false"
     inkscape:window-width="1728"
     inkscape:window-height="1051"
     inkscape:window-x="0"
     inkscape:window-y="38"
     inkscape:window-maximized="1"
     inkscape:snap-global="true"
     showguides="true"
     inkscape:guide-bbox="true"
     inkscape:snap-bbox="true"
     inkscape:object-paths="true"
     inkscape:snap-to-guides="true"
     objecttolerance="10.0"
     gridtolerance="10.0"
     guidetolerance="10.0"
     inkscape:pagecheckerboard="true"
     inkscape:showpageshadow="2"
     inkscape:deskcolor="#d1d1d1">
    <inkscape:grid
       type="xygrid"
       id="grid7319"
       units="mm"
       spacingx="0.25"
       spacingy="0.25"
       dotted="true"
       originx="-1.6111283e-05"
       originy="-2.2677762e-05" />
  </sodipodi:namedview>
  <defs
     id="defs2">
    <inkscape:path-effect
       effect="interpolate"
       id="path-effect6324"
       is_visible="true"
       trajectory="m 110.25386,95.159323 v -9e-5"
       equidistant_spacing="true"
       steps="8"
       lpeversion="0" />
    <inkscape:path-effect
       effect="interpolate"
       id="path-effect2617"
       is_visible="true"
       trajectory="m 80.488233,98.665052 -3e-6,-8.9e-5"
       equidistant_spacing="true"
       steps="5"
       lpeversion="0" />
    <inkscape:path-effect
       effect="interpolate_points"
       id="path-effect2615"
       is_visible="true"
       interpolator_type="Linear"
       lpeversion="0" />
    <inkscape:path-effect
       effect="fill_between_strokes"
       id="path-effect7754"
       is_visible="true"
       linkedpath=""
       secondpath=""
       reversesecond="false"
       lpeversion="0"
       join="true"
       close="true" />
    <inkscape:path-effect
       effect="gears"
       id="path-effect7752"
       is_visible="true"
       teeth="10"
       phi="5"
       min_radius="5"
       lpeversion="0" />
    <inkscape:path-effect
       effect="rough_hatches"
       id="path-effect7750"
       is_visible="true"
       direction="80.488233,93.665052 , 5.794695,0"
       dist_rdm="75;1"
       growth="0"
       do_bend="true"
       bender="80.488233,98.665052 , 5,0"
       bottom_edge_variation="2.3179546;1"
       top_edge_variation="2.3179546;1"
       bottom_tgt_variation="0;1"
       top_tgt_variation="0;1"
       scale_bf="1"
       scale_bb="1"
       scale_tf="1"
       scale_tb="1"
       top_smth_variation="0;1"
       bottom_smth_variation="0;1"
       fat_output="true"
       stroke_width_top="1"
       stroke_width_bottom="1"
       front_thickness="1"
       back_thickness="0.25"
       lpeversion="0" />
    <inkscape:path-effect
       effect="interpolate_points"
       id="path-effect7748"
       is_visible="true"
       interpolator_type="Linear"
       lpeversion="0" />
    <inkscape:path-effect
       effect="roughen"
       id="path-effect7746"
       is_visible="true"
       method="segments"
       max_segment_size="10"
       segments="2"
       displace_x="10;1"
       displace_y="10;1"
       global_randomize="1;1"
       handles="along"
       shift_nodes="true"
       fixed_displacement="false"
       spray_tool_friendly="false"
       lpeversion="0" />
    <inkscape:path-effect
       effect="ruler"
       id="path-effect7744"
       is_visible="true"
       unit="px"
       mark_distance="20"
       mark_length="14"
       minor_mark_length="7"
       major_mark_steps="5"
       shift="0"
       offset="0"
       mark_dir="left"
       border_marks="both"
       lpeversion="0" />
    <inkscape:path-effect
       effect="show_handles"
       id="path-effect7738"
       is_visible="true"
       nodes="true"
       handles="true"
       original_path="true"
       scale_nodes_and_handles="10"
       lpeversion="0"
       show_center_node="false"
       original_d="false" />
    <inkscape:path-effect
       effect="simplify"
       id="path-effect7736"
       is_visible="true"
       steps="3"
       threshold="0.002"
       smooth_angles="0"
       helper_size="5"
       simplify_individual_paths="false"
       simplify_just_coalesce="false"
       lpeversion="0" />
    <inkscape:path-effect
       effect="sketch"
       id="path-effect7734"
       is_visible="true"
       nbiter_approxstrokes="5"
       strokelength="100"
       strokelength_rdm="0.3;1"
       strokeoverlap="0.3"
       strokeoverlap_rdm="0.3;1"
       ends_tolerance="0.1;1"
       parallel_offset="5;1"
       tremble_size="5;1"
       tremble_frequency="1"
       nbtangents="5"
       tgt_places_rdmness="1;1"
       tgtscale="10"
       tgtlength="100"
       tgtlength_rdm="0.3;1"
       lpeversion="0" />
    <inkscape:path-effect
       effect="spiro"
       id="path-effect7732"
       is_visible="true"
       lpeversion="0" />
    <inkscape:path-effect
       effect="transform_2pts"
       start="76.36293,87.834265"
       end="80.48823,92.940815"
       id="path-effect7728"
       is_visible="true"
       first_knot="1"
       last_knot="12"
       helper_size="3"
       stretch="1"
       offset="0"
       elastic="false"
       from_original_width="false"
       flip_vertical="false"
       flip_horizontal="false"
       lock_lenght="false"
       lock_angle="false"
       lpeversion="0"
       lock_length="false" />
    <inkscape:path-effect
       effect="vonkoch"
       id="path-effect4037"
       is_visible="true"
       ref_path="M 68.898842,98.665052 H 92.077623"
       generator="m 68.898842,110.25483 h 7.72626 m 7.726261,0 h 7.72626"
       similar_only="false"
       nbgenerations="1"
       drawall="true"
       maxComplexity="1000"
       lpeversion="0" />
    <inkscape:path-effect
       effect="interpolate_points"
       id="path-effect4035"
       is_visible="true"
       interpolator_type="Linear"
       lpeversion="0" />
    <inkscape:path-effect
       effect="interpolate_points"
       id="path-effect3996"
       is_visible="true"
       interpolator_type="Linear"
       lpeversion="0" />
    <inkscape:path-effect
       effect="interpolate_points"
       id="path-effect3990"
       is_visible="true"
       interpolator_type="Linear"
       lpeversion="0" />
    <inkscape:path-effect
       effect="interpolate_points"
       id="path-effect3980"
       is_visible="true"
       interpolator_type="Linear"
       lpeversion="0" />
    <marker
       inkscape:isstock="true"
       style="overflow:visible"
       id="DotL"
       refX="0"
       refY="0"
       orient="auto"
       inkscape:stockid="DotL">
      <path
         transform="matrix(0.8,0,0,0.8,5.92,0.8)"
         style="fill:#4d4d4d;fill-opacity:1;fill-rule:evenodd;stroke:#4d4d4d;stroke-width:1pt;stroke-opacity:1"
         d="m -2.5,-1 c 0,2.76 -2.24,5 -5,5 -2.76,0 -5,-2.24 -5,-5 0,-2.76 2.24,-5 5,-5 2.76,0 5,2.24 5,5 z"
         id="path1538"
         inkscape:connector-curvature="0" />
    </marker>
    <marker
       id="DistanceX"
       orient="auto"
       refX="0"
       refY="0"
       style="overflow:visible">
      <path
         d="M 3,-3 -3,3 M 0,-5 V 5"
         style="stroke:#000000;stroke-width:0.5"
         id="path836"
         inkscape:connector-curvature="0" />
    </marker>
    <pattern
       height="8"
       id="Hatch"
       patternUnits="userSpaceOnUse"
       width="8"
       x="0"
       y="0">
      <path
         d="M8 4 l-4,4"
         linecap="square"
         stroke="#000000"
         stroke-width="0.25"
         id="path839" />
      <path
         d="M6 2 l-4,4"
         linecap="square"
         stroke="#000000"
         stroke-width="0.25"
         id="path841" />
      <path
         d="M4 0 l-4,4"
         linecap="square"
         stroke="#000000"
         stroke-width="0.25"
         id="path843" />
    </pattern>
    <symbol
       id="*MODEL_SPACE" />
    <symbol
       id="*PAPER_SPACE" />
    <marker
       style="overflow:visible"
       refY="0"
       refX="0"
       orient="auto"
       id="DistanceX-1">
      <path
         id="path7369"
         style="stroke:#000000;stroke-width:0.5"
         d="M 3,-3 -3,3 M 0,-5 V 5"
         inkscape:connector-curvature="0" />
    </marker>
    <pattern
       y="0"
       x="0"
       width="8"
       patternUnits="userSpaceOnUse"
       id="Hatch-4"
       height="8">
      <path
         id="path7372"
         stroke-width="0.25"
         stroke="#000000"
         linecap="square"
         d="M8 4 l-4,4" />
      <path
         id="path7374"
         stroke-width="0.25"
         stroke="#000000"
         linecap="square"
         d="M6 2 l-4,4" />
      <path
         id="path7376"
         stroke-width="0.25"
         stroke="#000000"
         linecap="square"
         d="M4 0 l-4,4" />
    </pattern>
    <symbol
       id="*MODEL_SPACE-9" />
    <symbol
       id="*PAPER_SPACE-1" />
  </defs>
  <metadata
     id="metadata5">
    <rdf:RDF>
      <cc:Work
         rdf:about="">
        <dc:format>image/svg+xml</dc:format>
        <dc:type
           rdf:resource="http://purl.org/dc/dcmitype/StillImage" />
      </cc:Work>
    </rdf:RDF>
  </metadata>
  <g
     transform="translate(-1.6111283e-5,-283.00002)"
     id="layer1"
     inkscape:groupmode="layer"
     inkscape:label="Logo - Colour"
     style="display:inline">
    <g
       id="g2226"
       transform="matrix(3.1252062,0,0,3.1252062,-355.85015,-244.77366)">
      <g
         id="g7491"
         transform="matrix(1.0969953,0,0,1.0969953,-11.99751,-16.895243)">
        <path
           inkscape:connector-curvature="0"
           style="fill:#ff7f2a;fill-opacity:1;stroke:none;stroke-width:0.065;stroke-miterlimit:4;stroke-dasharray:none"
           d="m 120.98331,169.34592 c -0.75418,0 -1.50817,0.13635 -2.22467,0.40928 -0.45117,1.77702 -1.83878,3.16461 -3.6158,3.6158 -0.54586,1.433 -0.54586,3.01685 0,4.44986 1.77702,0.45118 3.16463,1.83878 3.6158,3.61579 1.43301,0.54587 3.01635,0.54587 4.44934,0 0.45119,-1.77701 1.8388,-3.16461 3.6158,-3.61579 0.54587,-1.43301 0.54587,-3.01686 0,-4.44986 -1.777,-0.45119 -3.16461,-1.83878 -3.6158,-3.6158 -0.71649,-0.27293 -1.47051,-0.40928 -2.22467,-0.40928 z m 0,3.16311 a 3.0869628,3.0869628 0 0 1 3.08715,3.08715 3.0869628,3.0869628 0 0 1 -3.08715,3.08664 3.0869628,3.0869628 0 0 1 -3.08715,-3.08664 3.0869628,3.0869628 0 0 1 3.08715,-3.08715 z"
           id="path4643" />
        <g
           id="g2186">
          <g
             id="g2148">
            <path
               id="path7423"
               d="m 162.30377,172.14454 a 0.38362019,0.38362019 0 0 0 -0.37208,0.38292 v 6.13812 a 0.3837,0.3837 0 0 0 0.7674,0 v -6.13812 a 0.38362019,0.38362019 0 0 0 -0.39532,-0.38292 z m 0.007,0.16743 a 0.21482735,0.21482735 0 0 1 0.21962,0.21549 0.21482735,0.21482735 0 1 1 -0.42943,0 0.21482735,0.21482735 0 0 1 0.20981,-0.21549 z m 0,0.76688 a 0.21482735,0.21482735 0 0 1 0.21962,0.21601 0.21482735,0.21482735 0 1 1 -0.42943,0 0.21482735,0.21482735 0 0 1 0.20981,-0.21601 z m 0,0.76739 a 0.21482735,0.21482735 0 0 1 0.21962,0.21549 0.21482735,0.21482735 0 1 1 -0.42943,0 0.21482735,0.21482735 0 0 1 0.20981,-0.21549 z m 0,0.7674 a 0.21482735,0.21482735 0 0 1 0.21962,0.21549 0.21482735,0.21482735 0 1 1 -0.42943,0 0.21482735,0.21482735 0 0 1 0.20981,-0.21549 z m 0,0.76688 a 0.21482735,0.21482735 0 0 1 0.21962,0.216 0.21482735,0.21482735 0 1 1 -0.42943,0 0.21482735,0.21482735 0 0 1 0.20981,-0.216 z m 0,0.76739 a 0.21482735,0.21482735 0 0 1 0.21962,0.21601 0.21482735,0.21482735 0 1 1 -0.42943,0 0.21482735,0.21482735 0 0 1 0.20981,-0.21601 z m 0,0.7674 a 0.21482735,0.21482735 0 0 1 0.21962,0.21549 0.21482735,0.21482735 0 1 1 -0.42943,0 0.21482735,0.21482735 0 0 1 0.20981,-0.21549 z m 0,0.76687 a 0.21482735,0.21482735 0 0 1 0.21962,0.21601 0.21482735,0.21482735 0 1 1 -0.42943,0 0.21482735,0.21482735 0 0 1 0.20981,-0.21601 z m 0,0.7674 a 0.21482735,0.21482735 0 0 1 0.21962,0.216 0.21482735,0.21482735 0 1 1 -0.42943,0 0.21482735,0.21482735 0 0 1 0.20981,-0.216 z"
               style="fill:#808080;fill-opacity:1;stroke:none;stroke-width:0.0162399"
               inkscape:connector-curvature="0" />
            <g
               id="g2086">
              <path
                 style="fill:#808080;stroke:none;stroke-width:0.0162399"
                 d="m 133.45542,172.14453 a 0.38362016,0.38362016 0 0 0 -0.20257,0.71468 l 1.32136,0.76739 a 0.3836208,0.3836208 0 0 0 0.38499,-0.66352 l -1.32136,-0.7674 a 0.38362016,0.38362016 0 0 0 -0.18242,-0.0512 z m -0.0238,0.16794 a 0.21482999,0.21482999 0 0 1 0.22118,0.21498 0.214975,0.214975 0 0 1 -0.42995,0 0.21482999,0.21482999 0 0 1 0.20877,-0.21498 z m 0.66456,0.38396 a 0.21483,0.21483 0 0 1 0.22066,0.21446 0.21483,0.21483 0 0 1 -0.42943,0 0.21483,0.21483 0 0 1 0.20877,-0.21446 z m 0.66405,0.38344 a 0.21483,0.21483 0 0 1 0.22117,0.21497 0.21483,0.21483 0 0 1 -0.42943,0 0.21483,0.21483 0 0 1 0.20826,-0.21497 z"
                 id="path8212"
                 inkscape:connector-curvature="0" />
              <path
                 style="fill:#808080;fill-opacity:1;stroke:none;stroke-width:0.0162399"
                 d="m 131.87309,172.13987 c -0.052,0.006 -0.10639,0.0233 -0.16175,0.0553 l -1.3286,0.76739 c -0.44294,0.25575 -0.0595,0.92031 0.38344,0.66456 l 1.32911,-0.76739 c 0.38758,-0.22378 0.14189,-0.76051 -0.2222,-0.71986 z m 0.0238,0.1726 a 0.21482999,0.21482999 0 0 1 0.22117,0.21498 0.21482999,0.21482999 0 0 1 -0.42943,0 0.21482999,0.21482999 0 0 1 0.20826,-0.21498 z m -0.66404,0.38396 a 0.21483,0.21483 0 0 1 0.22065,0.21446 0.21483,0.21483 0 1 1 -0.42943,0 0.21483,0.21483 0 0 1 0.20878,-0.21446 z m -0.66456,0.38344 a 0.21483,0.21483 0 0 1 0.22117,0.21497 0.214975,0.214975 0 0 1 -0.42995,0 0.21483,0.21483 0 0 1 0.20878,-0.21497 z"
                 id="path8210"
                 inkscape:connector-curvature="0" />
              <path
                 style="fill:#808080;fill-opacity:1;stroke:none;stroke-width:0.0162399"
                 d="m 130.57394,174.44568 a 0.38362321,0.38362321 0 0 0 -0.12764,0.74517 l 4.3403,1.53427 a 0.38362321,0.38362321 0 0 0 0.2558,-0.72295 l -4.3403,-1.53479 a 0.38362321,0.38362321 0 0 0 -0.12816,-0.0217 z m -0.006,0.16898 a 0.21483,0.21483 0 0 1 0.22118,0.21445 0.214975,0.214975 0 0 1 -0.42995,0 0.21483,0.21483 0 0 1 0.20877,-0.21445 z m 0.7245,0.25476 a 0.21482735,0.21482735 0 0 1 0.21963,0.21549 0.21482735,0.21482735 0 1 1 -0.42943,0 0.21482735,0.21482735 0 0 1 0.2098,-0.21549 z m 0.72296,0.2558 a 0.21482728,0.21482728 0 0 1 0.22014,0.21549 0.21482728,0.21482728 0 1 1 -0.42943,0 0.21482728,0.21482728 0 0 1 0.20929,-0.21549 z m 0.72243,0.25632 a 0.21483,0.21483 0 0 1 0.22118,0.21497 0.21483,0.21483 0 0 1 -0.42943,0 0.21483,0.21483 0 0 1 0.20825,-0.21497 z m 0.72451,0.25476 a 0.21482728,0.21482728 0 0 1 0.22014,0.21601 0.214975,0.214975 0 1 1 -0.42995,0 0.21482728,0.21482728 0 0 1 0.20981,-0.21601 z m 0.72347,0.2558 a 0.21482735,0.21482735 0 0 1 0.22014,0.21601 0.214975,0.214975 0 1 1 -0.42995,0 0.21482735,0.21482735 0 0 1 0.20981,-0.21601 z m 0.72243,0.25683 a 0.21483,0.21483 0 0 1 0.22066,0.21498 0.21483,0.21483 0 0 1 -0.42943,0 0.21483,0.21483 0 0 1 0.20877,-0.21498 z"
                 id="path7753"
                 inkscape:connector-curvature="0" />
              <path
                 style="fill:#808080;fill-opacity:1;stroke:none;stroke-width:0.0162399"
                 d="m 134.90546,177.51474 a 0.38362278,0.38362278 0 0 0 -0.18242,0.0512 l -1.32912,0.76739 a 0.38374621,0.38374621 0 1 0 0.38344,0.66456 l 1.32912,-0.76739 a 0.38362278,0.38362278 0 0 0 -0.20102,-0.71572 z m 0.003,0.16846 a 0.21483,0.21483 0 0 1 0.22066,0.21498 0.21483,0.21483 0 0 1 -0.42944,0 0.21483,0.21483 0 0 1 0.20878,-0.21498 z m -0.66456,0.38396 a 0.21482999,0.21482999 0 0 1 0.22117,0.21446 0.214975,0.214975 0 0 1 -0.42995,0 0.21482999,0.21482999 0 0 1 0.20878,-0.21446 z m -0.66353,0.38241 a 0.21482728,0.21482728 0 0 1 0.22014,0.216 0.214975,0.214975 0 1 1 -0.42995,0 0.21482728,0.21482728 0 0 1 0.20981,-0.216 z"
                 id="path7777"
                 inkscape:connector-curvature="0" />
              <path
                 style="fill:#808080;fill-opacity:1;stroke:none;stroke-width:0.0162399"
                 d="m 130.71553,177.51474 a 0.38364329,0.38364329 0 0 0 -0.185,0.71572 l 1.3286,0.76739 a 0.38375294,0.38375294 0 0 0 0.38396,-0.66456 l -1.32912,-0.76739 a 0.38364329,0.38364329 0 0 0 -0.19844,-0.0512 z m 0.002,0.16743 a 0.21482735,0.21482735 0 0 1 0.22014,0.21601 0.21497396,0.21497396 0 1 1 -0.42994,0 0.21482735,0.21482735 0 0 1 0.2098,-0.21601 z m 0.66353,0.38499 a 0.21483,0.21483 0 0 1 0.22117,0.21446 0.214975,0.214975 0 0 1 -0.42995,0 0.21483,0.21483 0 0 1 0.20878,-0.21446 z m 0.66559,0.38241 a 0.21482735,0.21482735 0 0 1 0.22014,0.216 0.214975,0.214975 0 1 1 -0.42995,0 0.21482735,0.21482735 0 0 1 0.20981,-0.216 z"
                 id="path7781"
                 inkscape:connector-curvature="0" />
              <path
                 style="fill:#808080;fill-opacity:1;stroke:none;stroke-width:0.0162399"
                 d="m 132.10305,172.14404 c 0.0953,0.0527 0.17094,0.13692 0.20877,0.23823 0.0656,0.17537 0.0215,0.39704 -0.1912,0.51986 l -0.015,0.009 h 1.13792 l -0.015,-0.009 c -0.19022,-0.11117 -0.24877,-0.31854 -0.19947,-0.49248 0.0309,-0.10916 0.0969,-0.20696 0.21239,-0.26561 z m 0.5612,0.16846 a 0.21483,0.21483 0 0 1 0.22118,0.21498 0.214975,0.214975 0 0 1 -0.42995,0 0.21483,0.21483 0 0 1 0.20877,-0.21498 z"
                 id="path8377"
                 inkscape:connector-curvature="0" />
              <path
                 style="fill:#808080;fill-opacity:1;stroke:none;stroke-width:0.0162399"
                 d="m 130.19102,173.49383 v 1.13172 c 0.068,-0.13041 0.20129,-0.22969 0.38292,-0.22996 0.0456,0 0.0945,0.007 0.1447,0.0253 l 0.23926,0.0842 v -0.93017 l -0.16692,0.0961 c -0.12155,0.0702 -0.24543,0.0776 -0.34984,0.0429 -0.10441,-0.0347 -0.18835,-0.11038 -0.24185,-0.20308 -0.003,-0.005 -0.005,-0.0115 -0.008,-0.0171 z m 0.37724,0.35347 a 0.21482999,0.21482999 0 0 1 0.22118,0.21446 0.214975,0.214975 0 0 1 -0.42995,0 0.21482999,0.21482999 0 0 1 0.20877,-0.21446 z"
                 id="path8458"
                 inkscape:connector-curvature="0" />
              <path
                 style="fill:#808080;fill-opacity:1;stroke:none;stroke-width:0.0162399"
                 d="m 135.2982,176.53598 c -0.0376,0.0857 -0.0998,0.16131 -0.18345,0.20877 -0.0939,0.0533 -0.21381,0.0688 -0.34365,0.0274 l -0.24029,-0.0847 v 0.93172 l 0.1664,-0.0961 c 0.0893,-0.0578 0.21656,-0.06 0.26824,-0.0563 0.15278,0.0108 0.26861,0.12019 0.33279,0.24236 z m -0.38964,0.38033 c 0.12077,-0.003 0.2205,0.0936 0.22066,0.21446 -0.009,0.27707 -0.42036,0.27707 -0.42943,0 1.5e-4,-0.11618 0.0926,-0.21118 0.20877,-0.21446 z"
                 id="path8523"
                 inkscape:connector-curvature="0"
                 sodipodi:nodetypes="ccccccscccccc" />
              <path
                 style="fill:#808080;fill-opacity:1;stroke:none;stroke-width:0.0162399"
                 d="m 132.25136,178.2816 0.016,0.009 c 0.12109,0.0704 0.19091,0.17347 0.21291,0.28112 0.022,0.10764 -10e-4,0.21808 -0.0548,0.31058 -0.0392,0.0678 -0.0952,0.12612 -0.1633,0.1664 h 1.09554 c -0.0647,-0.0407 -0.11889,-0.0975 -0.15658,-0.16278 -0.0547,-0.0942 -0.0763,-0.20705 -0.0527,-0.31626 0.0236,-0.1092 0.0963,-0.21242 0.22273,-0.28112 l 0.0124,-0.007 z m 0.56069,0.16898 a 0.21483,0.21483 0 0 1 0.22117,0.21498 0.21483,0.21483 0 0 1 -0.42943,0 0.21483,0.21483 0 0 1 0.20826,-0.21498 z"
                 id="path8536"
                 inkscape:connector-curvature="0" />
            </g>
            <g
               id="g2090">
              <path
                 style="fill:#808080;fill-opacity:1;stroke:none;stroke-width:0.0162399"
                 d="m 136.31388,172.14401 a 0.38362014,0.38362014 0 0 0 0.0155,0.76688 h 4.60333 a 0.38362014,0.38362014 0 0 0 0,-0.76688 h -4.60333 a 0.38362014,0.38362014 0 0 0 -0.0155,0 z m 1.54461,0.16795 a 0.2148273,0.2148273 0 0 1 0.22014,0.21549 0.2148273,0.2148273 0 1 1 -0.42943,0 0.2148273,0.2148273 0 0 1 0.20929,-0.21549 z m 0.7674,0 a 0.2148273,0.2148273 0 0 1 0.22014,0.21549 0.214975,0.214975 0 1 1 -0.42995,0 0.2148273,0.2148273 0 0 1 0.20981,-0.21549 z m 0.76739,0 a 0.2148273,0.2148273 0 0 1 0.21963,0.21549 0.21482728,0.21482728 0 1 1 -0.42944,0 0.2148273,0.2148273 0 0 1 0.20981,-0.21549 z m 0.76688,0 a 0.21482728,0.21482728 0 0 1 0.22014,0.21549 0.2148273,0.2148273 0 1 1 -0.42943,0 0.21482728,0.21482728 0 0 1 0.20929,-0.21549 z m 0.76739,0 a 0.21482728,0.21482728 0 0 1 0.22015,0.21549 0.214975,0.214975 0 1 1 -0.42995,0 0.21482728,0.21482728 0 0 1 0.2098,-0.21549 z m -4.60437,5.3e-4 a 0.21483,0.21483 0 0 1 0.22118,0.21497 0.214975,0.214975 0 0 1 -0.42995,0 0.21483,0.21483 0 0 1 0.20877,-0.21497 z m 0.7674,0 a 0.21483,0.21483 0 0 1 0.22066,0.21497 0.21483,0.21483 0 1 1 -0.42943,0 0.21483,0.21483 0 0 1 0.20877,-0.21497 z"
                 id="path7385"
                 inkscape:connector-curvature="0" />
              <path
                 style="fill:#808080;fill-opacity:1;stroke:none;stroke-width:0.0162399"
                 d="m 138.24762,172.96158 v 5.70404 c 5.2e-4,0.51097 0.76635,0.51097 0.76688,0 v -5.70404 z m 0.37827,0.1173 a 0.2148273,0.2148273 0 0 1 0.22014,0.21601 0.214975,0.214975 0 0 1 -0.42995,0 0.2148273,0.2148273 0 0 1 0.20981,-0.21601 z m 0,0.7674 a 0.2148273,0.2148273 0 0 1 0.22014,0.21549 0.214975,0.214975 0 0 1 -0.42995,0 0.2148273,0.2148273 0 0 1 0.20981,-0.21549 z m 0,0.76739 a 0.2148273,0.2148273 0 0 1 0.22014,0.21549 0.214975,0.214975 0 0 1 -0.42995,0 0.2148273,0.2148273 0 0 1 0.20981,-0.21549 z m 0,0.76688 a 0.2148273,0.2148273 0 0 1 0.22014,0.21601 0.214975,0.214975 0 0 1 -0.42995,0 0.2148273,0.2148273 0 0 1 0.20981,-0.21601 z m 0,0.7674 a 0.2148273,0.2148273 0 0 1 0.22014,0.21601 0.214975,0.214975 0 0 1 -0.42995,0 0.2148273,0.2148273 0 0 1 0.20981,-0.21601 z m 0,0.76739 a 0.2148273,0.2148273 0 0 1 0.22014,0.21549 0.214975,0.214975 0 0 1 -0.42995,0 0.2148273,0.2148273 0 0 1 0.20981,-0.21549 z m 0,0.76688 a 0.2148273,0.2148273 0 0 1 0.22014,0.21601 0.214975,0.214975 0 0 1 -0.42995,0 0.2148273,0.2148273 0 0 1 0.20981,-0.21601 z m 0,0.7674 a 0.2148273,0.2148273 0 0 1 0.22014,0.216 0.214975,0.214975 0 0 1 -0.42995,0 0.2148273,0.2148273 0 0 1 0.20981,-0.216 z"
                 id="path8564"
                 inkscape:connector-curvature="0" />
            </g>
            <g
               id="g2096">
              <path
                 style="fill:#808080;fill-opacity:1;stroke:none;stroke-width:0.0162399"
                 d="m 143.14474,178.28162 v 0.38447 0.001 c -0.004,0.13631 -0.06,0.24443 -0.1416,0.31523 -0.0261,0.0226 -0.0551,0.0401 -0.0853,0.0553 h 3.62923 c 0.51097,-5.3e-4 0.51097,-0.7555 0,-0.75603 z m 0.32814,0.16795 c 0.12118,-0.003 0.22085,0.0948 0.22014,0.216 0.01,0.29566 -0.43895,0.29566 -0.42943,0 -7.9e-4,-0.11697 0.0924,-0.21299 0.20929,-0.216 z m 0.7674,0 c 0.12118,-0.003 0.22084,0.0948 0.22014,0.216 0.01,0.29566 -0.43895,0.29566 -0.42943,0 -8e-4,-0.11697 0.0924,-0.21299 0.20929,-0.216 z m 0.76739,0 c 0.12118,-0.003 0.22085,0.0948 0.22014,0.216 0,0.28663 -0.42994,0.28663 -0.42994,0 -8e-4,-0.11717 0.0927,-0.21327 0.2098,-0.216 z m 0.7674,0 c 0.12098,-0.003 0.22031,0.095 0.21962,0.216 0.01,0.29566 -0.43895,0.29566 -0.42943,0 -7.9e-4,-0.11717 0.0927,-0.21327 0.20981,-0.216 z m 0.76687,0 c 0.12119,-0.003 0.22085,0.0948 0.22015,0.216 0.01,0.29566 -0.43896,0.29566 -0.42943,0 -8e-4,-0.11697 0.0923,-0.21299 0.20928,-0.216 z"
                 id="path7491"
                 inkscape:connector-curvature="0" />
              <path
                 style="fill:#808080;fill-opacity:1;stroke:none;stroke-width:0.0162399"
                 d="m 143.14474,175.21255 v 0.7674 h 2.6355 c 0.51104,-5.3e-4 0.51104,-0.76785 0,-0.7674 z m 0.32814,0.16795 a 0.21482728,0.21482728 0 0 1 0.22014,0.21601 0.21482729,0.21482729 0 1 1 -0.42943,0 0.21482728,0.21482728 0 0 1 0.20929,-0.21601 z m 0.7674,0 a 0.21482734,0.21482734 0 0 1 0.22014,0.21601 0.21482734,0.21482734 0 1 1 -0.42943,0 0.21482734,0.21482734 0 0 1 0.20929,-0.21601 z m 0.76739,0 a 0.21482734,0.21482734 0 0 1 0.22014,0.21601 0.21497396,0.21497396 0 0 1 -0.42994,0 0.21482734,0.21482734 0 0 1 0.2098,-0.21601 z m 0.7674,0 a 0.21482734,0.21482734 0 0 1 0.21962,0.21601 0.21482734,0.21482734 0 1 1 -0.42943,0 0.21482734,0.21482734 0 0 1 0.20981,-0.21601 z"
                 id="path7505"
                 inkscape:connector-curvature="0" />
              <path
                 style="fill:#808080;fill-opacity:1;stroke:none;stroke-width:0.0162399"
                 d="m 142.90754,172.14401 c 0.13957,0.0719 0.23696,0.21558 0.2372,0.38344 v 0.38344 h 3.40237 c 0.51104,-5.3e-4 0.51104,-0.76733 0,-0.76688 z m 0.56534,0.16795 a 0.21482727,0.21482727 0 0 1 0.22014,0.21549 0.21482729,0.21482729 0 1 1 -0.42943,0 0.21482727,0.21482727 0 0 1 0.20929,-0.21549 z m 0.7674,0 a 0.21482734,0.21482734 0 0 1 0.22014,0.21549 0.21482734,0.21482734 0 1 1 -0.42943,0 0.21482734,0.21482734 0 0 1 0.20929,-0.21549 z m 0.76739,0 a 0.21482734,0.21482734 0 0 1 0.22014,0.21549 0.21497396,0.21497396 0 0 1 -0.42994,0 0.21482734,0.21482734 0 0 1 0.2098,-0.21549 z m 0.7674,0 a 0.21482734,0.21482734 0 0 1 0.21962,0.21549 0.21482734,0.21482734 0 1 1 -0.42943,0 0.21482734,0.21482734 0 0 1 0.20981,-0.21549 z m 0.76687,0 a 0.21482734,0.21482734 0 0 1 0.22015,0.21549 0.21482734,0.21482734 0 1 1 -0.42943,0 0.21482734,0.21482734 0 0 1 0.20928,-0.21549 z"
                 id="path7475"
                 inkscape:connector-curvature="0" />
              <path
                 id="path8571"
                 d="m 142.69981,172.14452 a 0.38362014,0.38362014 0 0 0 -0.37207,0.38293 v 6.13812 a 0.38362014,0.38362014 0 0 0 0.76687,0 v -6.13812 a 0.38362014,0.38362014 0 0 0 -0.3948,-0.38293 z m 0.005,0.16795 a 0.21483,0.21483 0 0 1 0.22118,0.21498 0.214975,0.214975 0 0 1 -0.42995,0 0.21483,0.21483 0 0 1 0.20877,-0.21498 z m 0,0.7674 a 0.21483,0.21483 0 0 1 0.22118,0.21497 0.214975,0.214975 0 0 1 -0.42995,0 0.21483,0.21483 0 0 1 0.20877,-0.21497 z m 0,0.76739 a 0.21483,0.21483 0 0 1 0.22118,0.21446 0.214975,0.214975 0 0 1 -0.42995,0 0.21483,0.21483 0 0 1 0.20877,-0.21446 z m 0,0.7674 a 0.21483,0.21483 0 0 1 0.22118,0.21445 0.214975,0.214975 0 0 1 -0.42995,0 0.21483,0.21483 0 0 1 0.20877,-0.21445 z m 0,0.76688 a 0.21483,0.21483 0 0 1 0.22118,0.21497 0.214975,0.214975 0 0 1 -0.42995,0 0.21483,0.21483 0 0 1 0.20877,-0.21497 z m 0,0.76739 a 0.21483,0.21483 0 0 1 0.22118,0.21498 0.214975,0.214975 0 0 1 -0.42995,0 0.21483,0.21483 0 0 1 0.20877,-0.21498 z m 0,0.7674 a 0.21483,0.21483 0 0 1 0.22118,0.21445 0.214975,0.214975 0 0 1 -0.42995,0 0.21483,0.21483 0 0 1 0.20877,-0.21445 z m 0,0.76687 a 0.21483,0.21483 0 0 1 0.22118,0.21498 0.214975,0.214975 0 0 1 -0.42995,0 0.21483,0.21483 0 0 1 0.20877,-0.21498 z m 0,0.7674 a 0.21483,0.21483 0 0 1 0.22118,0.21497 0.214975,0.214975 0 0 1 -0.42995,0 0.21483,0.21483 0 0 1 0.20877,-0.21497 z"
                 style="fill:#808080;fill-opacity:1;stroke:none;stroke-width:0.0162399"
                 inkscape:connector-curvature="0" />
            </g>
            <g
               id="g2102">
              <path
                 style="fill:#808080;fill-opacity:1;stroke:none;stroke-width:0.0162399"
                 d="m 149.12834,172.50161 c 5.3e-4,0.009 0.003,0.017 0.003,0.0258 v 0.44958 a 0.21482733,0.21482733 0 0 1 0.17002,0.21033 0.21482733,0.21482733 0 0 1 -0.17002,0.21084 v 0.61081 l 1.86139,3.13469 c -5.3e-4,-0.0755 0.0182,-0.15525 0.0651,-0.23409 l 0.34417,-0.57929 z m 0.34726,1.12965 a 0.21482733,0.21482733 0 0 1 0.22015,0.21549 0.21482733,0.21482733 0 1 1 -0.42943,0 0.21482733,0.21482733 0 0 1 0.20928,-0.21549 z m 0.39171,0.65939 a 0.21482733,0.21482733 0 0 1 0.22014,0.216 0.21482733,0.21482733 0 1 1 -0.42943,0 0.21482733,0.21482733 0 0 1 0.20929,-0.216 z m 0.39171,0.65991 a 0.21482733,0.21482733 0 0 1 0.22014,0.21549 0.21482733,0.21482733 0 1 1 -0.42943,0 0.21482733,0.21482733 0 0 1 0.20929,-0.21549 z m 0.39171,0.6599 a 0.21482733,0.21482733 0 0 1 0.22014,0.21549 0.21482733,0.21482733 0 1 1 -0.42943,0 0.21482733,0.21482733 0 0 1 0.20929,-0.21549 z m 0.3917,0.6594 a 0.21482728,0.21482728 0 0 1 0.22015,0.216 0.21482728,0.21482728 0 1 1 -0.42944,0 0.21482728,0.21482728 0 0 1 0.20929,-0.216 z"
                 id="path7675"
                 inkscape:connector-curvature="0" />
              <path
                 style="fill:#808080;fill-opacity:1;stroke:none;stroke-width:0.0162399"
                 d="m 154.54713,172.72279 c -0.005,0.009 -0.006,0.0172 -0.0109,0.0258 v 5.3e-4 l -0.22789,0.38395 a 0.21482735,0.21482735 0 0 1 0.0703,0.15968 0.21482735,0.21482735 0 0 1 -0.28629,0.20413 l -0.31264,0.52658 v 4.64209 c 5.3e-4,0.51097 0.76687,0.51097 0.76739,0 z m -0.38861,1.12344 a 0.21482735,0.21482735 0 0 1 0.22014,0.21549 0.214975,0.214975 0 1 1 -0.42994,0 0.21482735,0.21482735 0 0 1 0.2098,-0.21549 z m 0,0.76739 a 0.21482735,0.21482735 0 0 1 0.22014,0.21549 0.214975,0.214975 0 1 1 -0.42994,0 0.21482735,0.21482735 0 0 1 0.2098,-0.21549 z m 0,0.76688 a 0.21482735,0.21482735 0 0 1 0.22014,0.21601 0.214975,0.214975 0 1 1 -0.42994,0 0.21482735,0.21482735 0 0 1 0.2098,-0.21601 z m 0,0.7674 a 0.21482735,0.21482735 0 0 1 0.22014,0.21549 0.214975,0.214975 0 1 1 -0.42994,0 0.21482735,0.21482735 0 0 1 0.2098,-0.21549 z m 0,0.76739 a 0.21482735,0.21482735 0 0 1 0.22014,0.21549 0.214975,0.214975 0 1 1 -0.42994,0 0.21482735,0.21482735 0 0 1 0.2098,-0.21549 z m 0,0.76688 a 0.21482735,0.21482735 0 0 1 0.22014,0.21601 0.214975,0.214975 0 1 1 -0.42994,0 0.21482735,0.21482735 0 0 1 0.2098,-0.21601 z m 0,0.7674 a 0.21482735,0.21482735 0 0 1 0.22014,0.216 0.214975,0.214975 0 1 1 -0.42994,0 0.21482735,0.21482735 0 0 1 0.2098,-0.216 z"
                 id="path7699"
                 inkscape:connector-curvature="0" />
              <path
                 id="path8582"
                 d="m 148.70873,172.14453 a 0.38362019,0.38362019 0 0 0 -0.39532,0.38292 v 6.13813 a 0.38369742,0.38369742 0 0 0 0.76739,0 v -6.13813 a 0.38362019,0.38362019 0 0 0 -0.37207,-0.38292 z m -0.017,0.16743 a 0.21482735,0.21482735 0 0 1 0.22014,0.21549 0.21482735,0.21482735 0 1 1 -0.42943,0 0.21482735,0.21482735 0 0 1 0.20929,-0.21549 z m 0,0.76688 a 0.21482735,0.21482735 0 0 1 0.22014,0.21601 0.21482735,0.21482735 0 1 1 -0.42943,0 0.21482735,0.21482735 0 0 1 0.20929,-0.21601 z m 0,0.76739 a 0.21482735,0.21482735 0 0 1 0.22014,0.21549 0.21482735,0.21482735 0 1 1 -0.42943,0 0.21482735,0.21482735 0 0 1 0.20929,-0.21549 z m 0,0.7674 a 0.21482735,0.21482735 0 0 1 0.22014,0.21549 0.21482735,0.21482735 0 1 1 -0.42943,0 0.21482735,0.21482735 0 0 1 0.20929,-0.21549 z m 0,0.76688 a 0.21482735,0.21482735 0 0 1 0.22014,0.216 0.21482735,0.21482735 0 1 1 -0.42943,0 0.21482735,0.21482735 0 0 1 0.20929,-0.216 z m 0,0.76739 a 0.21482735,0.21482735 0 0 1 0.22014,0.21601 0.21482735,0.21482735 0 1 1 -0.42943,0 0.21482735,0.21482735 0 0 1 0.20929,-0.21601 z m 0,0.7674 a 0.21482735,0.21482735 0 0 1 0.22014,0.21549 0.21482735,0.21482735 0 1 1 -0.42943,0 0.21482735,0.21482735 0 0 1 0.20929,-0.21549 z m 0,0.76688 a 0.21482735,0.21482735 0 0 1 0.22014,0.216 0.21482735,0.21482735 0 1 1 -0.42943,0 0.21482735,0.21482735 0 0 1 0.20929,-0.216 z m 0,0.76739 a 0.21482735,0.21482735 0 0 1 0.22014,0.21601 0.21482735,0.21482735 0 1 1 -0.42943,0 0.21482735,0.21482735 0 0 1 0.20929,-0.21601 z"
                 style="fill:#808080;fill-opacity:1;stroke:none;stroke-width:0.0162399"
                 inkscape:connector-curvature="0" />
              <path
                 style="fill:#808080;fill-opacity:1;stroke:none;stroke-width:0.0162399"
                 d="m 154.15542,172.13833 c -0.11936,-9.9e-4 -0.23996,0.0553 -0.32143,0.19327 l -2.73368,4.60333 c -0.26022,0.43654 0.39094,0.83051 0.65681,0.39739 l 2.73627,-4.60902 c 0.18073,-0.30267 -0.0754,-0.5828 -0.33797,-0.58497 z m 0.003,0.17363 a 0.21482735,0.21482735 0 0 1 0.22014,0.21549 0.21497396,0.21497396 0 1 1 -0.42994,0 0.21482735,0.21482735 0 0 1 0.2098,-0.21549 z m -0.39171,0.65939 a 0.21482735,0.21482735 0 0 1 0.22015,0.21601 0.214975,0.214975 0 1 1 -0.42995,0 0.21482735,0.21482735 0 0 1 0.2098,-0.21601 z m -0.3917,0.65991 a 0.21482735,0.21482735 0 0 1 0.22014,0.21549 0.214975,0.214975 0 1 1 -0.42995,0 0.21482735,0.21482735 0 0 1 0.20981,-0.21549 z m -0.39171,0.65939 a 0.21482735,0.21482735 0 0 1 0.22014,0.21601 0.214975,0.214975 0 1 1 -0.42995,0 0.21482735,0.21482735 0 0 1 0.20981,-0.21601 z m -0.39171,0.65991 a 0.21482735,0.21482735 0 0 1 0.22014,0.216 0.21497396,0.21497396 0 1 1 -0.42994,0 0.21482735,0.21482735 0 0 1 0.2098,-0.216 z m -0.39274,0.66094 a 0.21483,0.21483 0 0 1 0.22118,0.21446 0.214975,0.214975 0 1 1 -0.42995,0 0.21483,0.21483 0 0 1 0.20877,-0.21446 z m -0.39171,0.65939 a 0.21483,0.21483 0 0 1 0.22118,0.21497 0.214975,0.214975 0 0 1 -0.42995,0 0.21483,0.21483 0 0 1 0.20877,-0.21497 z m -0.38343,0.64544 a 0.21483,0.21483 0 0 1 0.22117,0.21446 0.21483,0.21483 0 1 1 -0.42943,0 0.21483,0.21483 0 0 1 0.20826,-0.21446 z"
                 id="path8587"
                 inkscape:connector-curvature="0" />
            </g>
            <g
               id="g2107">
              <path
                 style="fill:#808080;fill-opacity:1;stroke:none;stroke-width:0.0162399"
                 d="m 156.70979,172.14401 c 0.13981,0.072 0.23748,0.21594 0.23771,0.38395 v 0.38293 h 3.40186 c 0.51104,-5.3e-4 0.51104,-0.76733 0,-0.76688 z m 0.56534,0.16795 a 0.21482734,0.21482734 0 0 1 0.22014,0.21549 0.21482734,0.21482734 0 1 1 -0.42943,0 0.21482734,0.21482734 0 0 1 0.20929,-0.21549 z m 0.76636,5.3e-4 a 0.21483,0.21483 0 0 1 0.22117,0.21497 0.21497396,0.21497396 0 0 1 -0.42994,0 0.21483,0.21483 0 0 1 0.20877,-0.21497 z m 0.7674,0 a 0.21483,0.21483 0 0 1 0.22117,0.21497 0.214975,0.214975 0 0 1 -0.42995,0 0.21483,0.21483 0 0 1 0.20878,-0.21497 z m 0.76687,0 a 0.21483,0.21483 0 0 1 0.22118,0.21497 0.21483,0.21483 0 1 1 -0.42943,0 0.21483,0.21483 0 0 1 0.20825,-0.21497 z m 0.7674,0 a 0.21483,0.21483 0 0 1 0.22117,0.21497 0.21483,0.21483 0 1 1 -0.42943,0 0.21483,0.21483 0 0 1 0.20826,-0.21497 z"
                 id="path8338"
                 inkscape:connector-curvature="0" />
              <path
                 style="fill:#808080;fill-opacity:1;stroke:none;stroke-width:0.0162399"
                 d="m 156.9475,175.21255 v 0.7674 h 2.63498 c 0.51104,-5.3e-4 0.51104,-0.76785 0,-0.7674 z m 0.32763,0.16795 a 0.21482734,0.21482734 0 0 1 0.22014,0.21601 0.21482734,0.21482734 0 1 1 -0.42943,0 0.21482734,0.21482734 0 0 1 0.20929,-0.21601 z m 0.76636,10e-4 a 0.21483,0.21483 0 0 1 0.22117,0.21498 0.21497396,0.21497396 0 0 1 -0.42994,0 0.21483,0.21483 0 0 1 0.20877,-0.21498 z m 0.7674,0 a 0.21483,0.21483 0 0 1 0.22117,0.21498 0.214975,0.214975 0 0 1 -0.42995,0 0.21483,0.21483 0 0 1 0.20878,-0.21498 z m 0.76687,0 a 0.21483,0.21483 0 0 1 0.22118,0.21498 0.21483,0.21483 0 1 1 -0.42943,0 0.21483,0.21483 0 0 1 0.20825,-0.21498 z"
                 id="path7613"
                 inkscape:connector-curvature="0" />
              <path
                 inkscape:connector-curvature="0"
                 id="path8595"
                 d="m 156.50154,172.14453 a 0.38362019,0.38362019 0 0 0 -0.37207,0.38292 v 6.13813 a 0.38369742,0.38369742 0 0 0 0.76739,0 v -6.13813 a 0.38362019,0.38362019 0 0 0 -0.39532,-0.38292 z m 0.007,0.16743 a 0.21482735,0.21482735 0 0 1 0.21962,0.21549 0.21482735,0.21482735 0 1 1 -0.42943,0 0.21482735,0.21482735 0 0 1 0.20981,-0.21549 z m 0,0.76688 a 0.21482735,0.21482735 0 0 1 0.21962,0.21601 0.21482735,0.21482735 0 1 1 -0.42943,0 0.21482735,0.21482735 0 0 1 0.20981,-0.21601 z m 0,0.76739 a 0.21482735,0.21482735 0 0 1 0.21962,0.21549 0.21482735,0.21482735 0 1 1 -0.42943,0 0.21482735,0.21482735 0 0 1 0.20981,-0.21549 z m 0,0.7674 a 0.21482735,0.21482735 0 0 1 0.21962,0.21549 0.21482735,0.21482735 0 1 1 -0.42943,0 0.21482735,0.21482735 0 0 1 0.20981,-0.21549 z m 0,0.76688 a 0.21482735,0.21482735 0 0 1 0.21962,0.216 0.21482735,0.21482735 0 1 1 -0.42943,0 0.21482735,0.21482735 0 0 1 0.20981,-0.216 z m 0,0.76739 a 0.21482735,0.21482735 0 0 1 0.21962,0.21601 0.21482735,0.21482735 0 1 1 -0.42943,0 0.21482735,0.21482735 0 0 1 0.20981,-0.21601 z m 0,0.7674 a 0.21482735,0.21482735 0 0 1 0.21962,0.21549 0.21482735,0.21482735 0 1 1 -0.42943,0 0.21482735,0.21482735 0 0 1 0.20981,-0.21549 z m 0,0.76688 a 0.21482735,0.21482735 0 0 1 0.21962,0.216 0.21482735,0.21482735 0 1 1 -0.42943,0 0.21482735,0.21482735 0 0 1 0.20981,-0.216 z m 0,0.76739 a 0.21482735,0.21482735 0 0 1 0.21962,0.21601 0.21482735,0.21482735 0 1 1 -0.42943,0 0.21482735,0.21482735 0 0 1 0.20981,-0.21601 z"
                 style="fill:#808080;fill-opacity:1;stroke:none;stroke-width:0.0162399" />
            </g>
            <g
               id="g2113">
              <path
                 inkscape:connector-curvature="0"
                 id="path8637"
                 d="m 165.16975,178.28162 v 0.38447 0.001 c -0.004,0.13631 -0.06,0.24443 -0.1416,0.31523 -0.0261,0.0226 -0.0551,0.0401 -0.0853,0.0553 h 3.62923 c 0.51097,-5.3e-4 0.51097,-0.7555 0,-0.75603 z m 0.32814,0.16795 c 0.12118,-0.003 0.22084,0.0948 0.22014,0.216 0.01,0.29566 -0.43895,0.29566 -0.42943,0 -7.9e-4,-0.11697 0.0924,-0.21299 0.20929,-0.216 z m 0.7674,0 c 0.12118,-0.003 0.22084,0.0948 0.22014,0.216 0.01,0.29566 -0.43896,0.29566 -0.42943,0 -8e-4,-0.11697 0.0923,-0.21299 0.20929,-0.216 z m 0.76739,0 c 0.12118,-0.003 0.22084,0.0948 0.22014,0.216 0,0.28663 -0.42994,0.28663 -0.42994,0 -8e-4,-0.11717 0.0927,-0.21327 0.2098,-0.216 z m 0.7674,0 c 0.12097,-0.003 0.22031,0.095 0.21962,0.216 0.01,0.29566 -0.43895,0.29566 -0.42943,0 -7.9e-4,-0.11717 0.0927,-0.21327 0.20981,-0.216 z m 0.76687,0 c 0.12118,-0.003 0.22085,0.0948 0.22015,0.216 0.01,0.29566 -0.43896,0.29566 -0.42944,0 -7.9e-4,-0.11697 0.0924,-0.21299 0.20929,-0.216 z"
                 style="fill:#808080;fill-opacity:1;stroke:none;stroke-width:0.0162399" />
              <path
                 inkscape:connector-curvature="0"
                 id="path8639"
                 d="m 165.16975,175.21255 v 0.7674 h 2.63549 c 0.51104,-5.3e-4 0.51104,-0.76785 0,-0.7674 z m 0.32814,0.16795 a 0.21482728,0.21482728 0 0 1 0.22014,0.21601 0.21482729,0.21482729 0 1 1 -0.42943,0 0.21482728,0.21482728 0 0 1 0.20929,-0.21601 z m 0.7674,0 a 0.21482734,0.21482734 0 0 1 0.22014,0.21601 0.21482734,0.21482734 0 1 1 -0.42943,0 0.21482734,0.21482734 0 0 1 0.20929,-0.21601 z m 0.76739,0 a 0.21482734,0.21482734 0 0 1 0.22014,0.21601 0.21497396,0.21497396 0 0 1 -0.42994,0 0.21482734,0.21482734 0 0 1 0.2098,-0.21601 z m 0.7674,0 a 0.21482734,0.21482734 0 0 1 0.21962,0.21601 0.21482734,0.21482734 0 1 1 -0.42943,0 0.21482734,0.21482734 0 0 1 0.20981,-0.21601 z"
                 style="fill:#808080;fill-opacity:1;stroke:none;stroke-width:0.0162399" />
              <path
                 inkscape:connector-curvature="0"
                 id="path8641"
                 d="m 164.93255,172.14401 c 0.13957,0.0719 0.23696,0.21558 0.2372,0.38344 v 0.38344 h 3.40237 c 0.51104,-5.3e-4 0.51104,-0.76733 0,-0.76688 z m 0.56534,0.16795 a 0.21482727,0.21482727 0 0 1 0.22014,0.21549 0.21482729,0.21482729 0 1 1 -0.42943,0 0.21482727,0.21482727 0 0 1 0.20929,-0.21549 z m 0.7674,0 a 0.21482734,0.21482734 0 0 1 0.22014,0.21549 0.21482734,0.21482734 0 1 1 -0.42943,0 0.21482734,0.21482734 0 0 1 0.20929,-0.21549 z m 0.76739,0 a 0.21482734,0.21482734 0 0 1 0.22014,0.21549 0.21497396,0.21497396 0 0 1 -0.42994,0 0.21482734,0.21482734 0 0 1 0.2098,-0.21549 z m 0.7674,0 a 0.21482734,0.21482734 0 0 1 0.21962,0.21549 0.21482734,0.21482734 0 1 1 -0.42943,0 0.21482734,0.21482734 0 0 1 0.20981,-0.21549 z m 0.76687,0 a 0.21482734,0.21482734 0 0 1 0.22015,0.21549 0.21482734,0.21482734 0 1 1 -0.42944,0 0.21482734,0.21482734 0 0 1 0.20929,-0.21549 z"
                 style="fill:#808080;fill-opacity:1;stroke:none;stroke-width:0.0162399" />
              <path
                 inkscape:connector-curvature="0"
                 style="fill:#808080;fill-opacity:1;stroke:none;stroke-width:0.0162399"
                 d="m 164.72481,172.14452 a 0.38362014,0.38362014 0 0 0 -0.37207,0.38293 v 6.13812 a 0.38362014,0.38362014 0 0 0 0.76687,0 v -6.13812 a 0.38362014,0.38362014 0 0 0 -0.3948,-0.38293 z m 0.005,0.16795 a 0.21483,0.21483 0 0 1 0.22118,0.21498 0.214975,0.214975 0 0 1 -0.42994,0 0.21483,0.21483 0 0 1 0.20876,-0.21498 z m 0,0.7674 a 0.21483,0.21483 0 0 1 0.22118,0.21497 0.214975,0.214975 0 0 1 -0.42994,0 0.21483,0.21483 0 0 1 0.20876,-0.21497 z m 0,0.76739 a 0.21483,0.21483 0 0 1 0.22118,0.21446 0.214975,0.214975 0 0 1 -0.42994,0 0.21483,0.21483 0 0 1 0.20876,-0.21446 z m 0,0.7674 a 0.21483,0.21483 0 0 1 0.22118,0.21445 0.214975,0.214975 0 0 1 -0.42994,0 0.21483,0.21483 0 0 1 0.20876,-0.21445 z m 0,0.76688 a 0.21483,0.21483 0 0 1 0.22118,0.21497 0.214975,0.214975 0 0 1 -0.42994,0 0.21483,0.21483 0 0 1 0.20876,-0.21497 z m 0,0.76739 a 0.21483,0.21483 0 0 1 0.22118,0.21498 0.214975,0.214975 0 0 1 -0.42994,0 0.21483,0.21483 0 0 1 0.20876,-0.21498 z m 0,0.7674 a 0.21483,0.21483 0 0 1 0.22118,0.21445 0.214975,0.214975 0 0 1 -0.42994,0 0.21483,0.21483 0 0 1 0.20876,-0.21445 z m 0,0.76687 a 0.21483,0.21483 0 0 1 0.22118,0.21498 0.214975,0.214975 0 0 1 -0.42994,0 0.21483,0.21483 0 0 1 0.20876,-0.21498 z m 0,0.7674 a 0.21483,0.21483 0 0 1 0.22118,0.21497 0.214975,0.214975 0 0 1 -0.42994,0 0.21483,0.21483 0 0 1 0.20876,-0.21497 z"
                 id="path8643" />
            </g>
          </g>
          <g
             aria-label="®"
             style="font-style:normal;font-variant:normal;font-weight:normal;font-stretch:normal;font-size:5.48131px;line-height:1.25;font-family:sans-serif;-inkscape-font-specification:'sans-serif, Normal';font-variant-ligatures:normal;font-variant-caps:normal;font-variant-numeric:normal;font-feature-settings:normal;text-align:center;letter-spacing:0px;word-spacing:0px;writing-mode:lr-tb;text-anchor:middle;fill:#808080;fill-opacity:1;stroke:none;stroke-width:0.137033"
             id="text1075"
             transform="translate(-0.79756342,-17.246063)">
            <path
               d="m 170.85197,188.51396 c 0.14702,0 0.27335,0.0528 0.37898,0.15845 0.10563,0.10515 0.15844,0.23172 0.15844,0.37969 0,0.14798 -0.0526,0.27478 -0.15773,0.38041 -0.10515,0.10563 -0.23172,0.15845 -0.37969,0.15845 -0.14845,0 -0.27549,-0.0526 -0.38112,-0.15773 -0.10563,-0.10563 -0.15845,-0.23268 -0.15845,-0.38113 0,-0.14845 0.0528,-0.27525 0.15845,-0.3804 0.1061,-0.10516 0.23314,-0.15774 0.38112,-0.15774 z m -0.001,0.9885 c 0.12323,0 0.22886,-0.044 0.31689,-0.13204 0.0885,-0.0885 0.13275,-0.19461 0.13275,-0.31832 0,-0.12371 -0.044,-0.22933 -0.13204,-0.31688 -0.088,-0.088 -0.19389,-0.13204 -0.3176,-0.13204 -0.12371,0 -0.22958,0.044 -0.3176,0.13204 -0.0875,0.0875 -0.13132,0.19317 -0.13132,0.31688 0,0.12371 0.0438,0.22982 0.13132,0.31832 0.088,0.088 0.19389,0.13204 0.3176,0.13204 z m 0.26751,-0.15787 h -0.10705 l -0.045,-0.12633 c -0.0271,-0.0756 -0.0783,-0.11348 -0.15345,-0.11348 h -0.0735 v 0.23981 h -0.0935 v -0.57883 h 0.21769 c 0.1532,0 0.22981,0.0531 0.22981,0.15916 0,0.1023 -0.0502,0.15726 -0.15059,0.16487 0.0514,0.0157 0.0895,0.0524 0.11419,0.10991 z m -0.37898,-0.32046 h 0.11705 c 0.0918,0 0.13775,-0.0302 0.13775,-0.0906 0,-0.0595 -0.0474,-0.0892 -0.14203,-0.0892 h -0.11277 z"
               style="font-style:normal;font-variant:normal;font-weight:normal;font-stretch:normal;font-size:1.46168px;font-family:'Microsoft Sans Serif';-inkscape-font-specification:'Microsoft Sans Serif';fill:#808080;fill-opacity:1;stroke-width:0.137033"
               id="path1079"
               inkscape:connector-curvature="0"
               sodipodi:nodetypes="scscscscsssscscscscccsccccssccccssscc" />
          </g>
        </g>
      </g>
    </g>
    <g
       aria-label="®"
       style="font-style:normal;font-variant:normal;font-weight:normal;font-stretch:normal;font-size:5.48131px;line-height:1.25;font-family:sans-serif;-inkscape-font-specification:'sans-serif, Normal';font-variant-ligatures:normal;font-variant-caps:normal;font-variant-numeric:normal;font-feature-settings:normal;text-align:center;letter-spacing:0px;word-spacing:0px;writing-mode:lr-tb;text-anchor:middle;fill:#808080;fill-opacity:1;stroke:none;stroke-width:0.137033"
       id="g5685"
       transform="translate(-89.999091,-22.213995)" />
    <g
       aria-label="®"
       style="font-style:normal;font-variant:normal;font-weight:normal;font-stretch:normal;font-size:5.48131px;line-height:1.25;font-family:sans-serif;-inkscape-font-specification:'sans-serif, Normal';font-variant-ligatures:normal;font-variant-caps:normal;font-variant-numeric:normal;font-feature-settings:normal;text-align:center;letter-spacing:0px;word-spacing:0px;writing-mode:lr-tb;text-anchor:middle;fill:#808080;fill-opacity:1;stroke:none;stroke-width:0.137033"
       id="g6179"
       transform="translate(-2.6865673,-12.159664)" />
  </g>
</svg>
