<?xml version="1.0" encoding="UTF-8" standalone="no"?>
<svg
   width="204.64069mm"
   height="42.85466mm"
   viewBox="0 0 204.64069 42.85466"
   version="1.1"
   id="svg8"
   inkscape:version="1.2 (dc2aeda, 2022-05-15)"
   sodipodi:docname="STEMFIE_Logo_Horzontal.svg"
   style="enable-background:new"
   inkscape:export-filename="STEMFIE_Logo_Horzontal_registered.svg"
   inkscape:export-xdpi="104.61713"
   inkscape:export-ydpi="104.61713"
   xmlns:inkscape="http://www.inkscape.org/namespaces/inkscape"
   xmlns:sodipodi="http://sodipodi.sourceforge.net/DTD/sodipodi-0.dtd"
   xmlns="http://www.w3.org/2000/svg"
   xmlns:svg="http://www.w3.org/2000/svg"
   xmlns:rdf="http://www.w3.org/1999/02/22-rdf-syntax-ns#"
   xmlns:cc="http://creativecommons.org/ns#"
   xmlns:dc="http://purl.org/dc/elements/1.1/">
  <sodipodi:namedview
     id="base"
     pagecolor="#ffffff"
     bordercolor="#666666"
     borderopacity="1.0"
     inkscape:pageopacity="0.0"
     inkscape:pageshadow="2"
     inkscape:zoom="1.4375825"
     inkscape:cx="398.93362"
     inkscape:cy="156.16495"
     inkscape:document-units="mm"
     inkscape:current-layer="g2226"
     showgrid="false"
     inkscape:window-width="1728"
     inkscape:window-height="1051"
     inkscape:window-x="0"
     inkscape:window-y="38"
     inkscape:window-maximized="1"
     inkscape:snap-global="true"
     showguides="true"
     inkscape:guide-bbox="true"
     inkscape:snap-bbox="true"
     inkscape:object-paths="true"
     inkscape:snap-to-guides="true"
     objecttolerance="10.0"
     gridtolerance="10.0"
     guidetolerance="10.0"
     inkscape:pagecheckerboard="true"
     inkscape:showpageshadow="2"
     inkscape:deskcolor="#d1d1d1">
    <inkscape:grid
       type="xygrid"
       id="grid7319"
       units="mm"
       spacingx="0.25"
       spacingy="0.25"
       dotted="true"
       originx="-1.6111283e-05"
       originy="-2.2677762e-05" />
  </sodipodi:namedview>
  <defs
     id="defs2" />
  <metadata
     id="metadata5">
    <rdf:RDF>
      <cc:Work
         rdf:about="">
        <dc:format>image/svg+xml</dc:format>
        <dc:type
           rdf:resource="http://purl.org/dc/dcmitype/StillImage" />
      </cc:Work>
    </rdf:RDF>
  </metadata>
  <g
     transform="translate(-1.6111283e-5,-283.00002)"
     id="layer1"
     inkscape:groupmode="layer"
     inkscape:label="Logo - Colour"
     style="display:inline">
    <g
       id="g2226"
       transform="matrix(3.1252062,0,0,3.1252062,-355.85015,-244.77366)">
      <g
         id="g7491"
         transform="matrix(1.0969953,0,0,1.0969953,-11.99751,-16.895243)">
        <path
           inkscape:connector-curvature="0"
           style="fill:#ff7f2a;fill-opacity:1;stroke:none;stroke-width:0.065;stroke-miterlimit:4;stroke-dasharray:none"
           d="m 120.98331,169.34592 c -0.75418,0 -1.50817,0.13635 -2.22467,0.40928 -0.45117,1.77702 -1.83878,3.16461 -3.6158,3.6158 -0.54586,1.433 -0.54586,3.01685 0,4.44986 1.77702,0.45118 3.16463,1.83878 3.6158,3.61579 1.43301,0.54587 3.01635,0.54587 4.44934,0 0.45119,-1.77701 1.8388,-3.16461 3.6158,-3.61579 0.54587,-1.43301 0.54587,-3.01686 0,-4.44986 -1.777,-0.45119 -3.16461,-1.83878 -3.6158,-3.6158 -0.71649,-0.27293 -1.47051,-0.40928 -2.22467,-0.40928 z m 0,3.16311 a 3.0869628,3.0869628 0 0 1 3.08715,3.08715 3.0869628,3.0869628 0 0 1 -3.08715,3.08664 3.0869628,3.0869628 0 0 1 -3.08715,-3.08664 3.0869628,3.0869628 0 0 1 3.08715,-3.08715 z"
           id="path4643" />
        <g
           id="g2186">
          <g
             id="g2148">
            <path
               id="path7423"
               d="m 162.30377,172.14454 a 0.38362019,0.38362019 0 0 0 -0.37208,0.38292 v 6.13812 a 0.3837,0.3837 0 0 0 0.7674,0 v -6.13812 a 0.38362019,0.38362019 0 0 0 -0.39532,-0.38292 z m 0.007,0.16743 a 0.21482735,0.21482735 0 0 1 0.21962,0.21549 0.21482735,0.21482735 0 1 1 -0.42943,0 0.21482735,0.21482735 0 0 1 0.20981,-0.21549 z m 0,0.76688 a 0.21482735,0.21482735 0 0 1 0.21962,0.21601 0.21482735,0.21482735 0 1 1 -0.42943,0 0.21482735,0.21482735 0 0 1 0.20981,-0.21601 z m 0,0.76739 a 0.21482735,0.21482735 0 0 1 0.21962,0.21549 0.21482735,0.21482735 0 1 1 -0.42943,0 0.21482735,0.21482735 0 0 1 0.20981,-0.21549 z m 0,0.7674 a 0.21482735,0.21482735 0 0 1 0.21962,0.21549 0.21482735,0.21482735 0 1 1 -0.42943,0 0.21482735,0.21482735 0 0 1 0.20981,-0.21549 z m 0,0.76688 a 0.21482735,0.21482735 0 0 1 0.21962,0.216 0.21482735,0.21482735 0 1 1 -0.42943,0 0.21482735,0.21482735 0 0 1 0.20981,-0.216 z m 0,0.76739 a 0.21482735,0.21482735 0 0 1 0.21962,0.21601 0.21482735,0.21482735 0 1 1 -0.42943,0 0.21482735,0.21482735 0 0 1 0.20981,-0.21601 z m 0,0.7674 a 0.21482735,0.21482735 0 0 1 0.21962,0.21549 0.21482735,0.21482735 0 1 1 -0.42943,0 0.21482735,0.21482735 0 0 1 0.20981,-0.21549 z m 0,0.76687 a 0.21482735,0.21482735 0 0 1 0.21962,0.21601 0.21482735,0.21482735 0 1 1 -0.42943,0 0.21482735,0.21482735 0 0 1 0.20981,-0.21601 z m 0,0.7674 a 0.21482735,0.21482735 0 0 1 0.21962,0.216 0.21482735,0.21482735 0 1 1 -0.42943,0 0.21482735,0.21482735 0 0 1 0.20981,-0.216 z"
               style="fill:#808080;fill-opacity:1;stroke:none;stroke-width:0.0162399"
               inkscape:connector-curvature="0" />
            <g
               id="g2086">
              <path
                 style="fill:#808080;stroke:none;stroke-width:0.0162399"
                 d="m 133.45542,172.14453 a 0.38362016,0.38362016 0 0 0 -0.20257,0.71468 l 1.32136,0.76739 a 0.3836208,0.3836208 0 0 0 0.38499,-0.66352 l -1.32136,-0.7674 a 0.38362016,0.38362016 0 0 0 -0.18242,-0.0512 z m -0.0238,0.16794 a 0.21482999,0.21482999 0 0 1 0.22118,0.21498 0.214975,0.214975 0 0 1 -0.42995,0 0.21482999,0.21482999 0 0 1 0.20877,-0.21498 z m 0.66456,0.38396 a 0.21483,0.21483 0 0 1 0.22066,0.21446 0.21483,0.21483 0 0 1 -0.42943,0 0.21483,0.21483 0 0 1 0.20877,-0.21446 z m 0.66405,0.38344 a 0.21483,0.21483 0 0 1 0.22117,0.21497 0.21483,0.21483 0 0 1 -0.42943,0 0.21483,0.21483 0 0 1 0.20826,-0.21497 z"
                 id="path8212"
                 inkscape:connector-curvature="0" />
              <path
                 style="fill:#808080;fill-opacity:1;stroke:none;stroke-width:0.0162399"
                 d="m 131.87309,172.13987 c -0.052,0.006 -0.10639,0.0233 -0.16175,0.0553 l -1.3286,0.76739 c -0.44294,0.25575 -0.0595,0.92031 0.38344,0.66456 l 1.32911,-0.76739 c 0.38758,-0.22378 0.14189,-0.76051 -0.2222,-0.71986 z m 0.0238,0.1726 a 0.21482999,0.21482999 0 0 1 0.22117,0.21498 0.21482999,0.21482999 0 0 1 -0.42943,0 0.21482999,0.21482999 0 0 1 0.20826,-0.21498 z m -0.66404,0.38396 a 0.21483,0.21483 0 0 1 0.22065,0.21446 0.21483,0.21483 0 1 1 -0.42943,0 0.21483,0.21483 0 0 1 0.20878,-0.21446 z m -0.66456,0.38344 a 0.21483,0.21483 0 0 1 0.22117,0.21497 0.214975,0.214975 0 0 1 -0.42995,0 0.21483,0.21483 0 0 1 0.20878,-0.21497 z"
                 id="path8210"
                 inkscape:connector-curvature="0" />
              <path
                 style="fill:#808080;fill-opacity:1;stroke:none;stroke-width:0.0162399"
                 d="m 130.57394,174.44568 a 0.38362321,0.38362321 0 0 0 -0.12764,0.74517 l 4.3403,1.53427 a 0.38362321,0.38362321 0 0 0 0.2558,-0.72295 l -4.3403,-1.53479 a 0.38362321,0.38362321 0 0 0 -0.12816,-0.0217 z m -0.006,0.16898 a 0.21483,0.21483 0 0 1 0.22118,0.21445 0.214975,0.214975 0 0 1 -0.42995,0 0.21483,0.21483 0 0 1 0.20877,-0.21445 z m 0.7245,0.25476 a 0.21482735,0.21482735 0 0 1 0.21963,0.21549 0.21482735,0.21482735 0 1 1 -0.42943,0 0.21482735,0.21482735 0 0 1 0.2098,-0.21549 z m 0.72296,0.2558 a 0.21482728,0.21482728 0 0 1 0.22014,0.21549 0.21482728,0.21482728 0 1 1 -0.42943,0 0.21482728,0.21482728 0 0 1 0.20929,-0.21549 z m 0.72243,0.25632 a 0.21483,0.21483 0 0 1 0.22118,0.21497 0.21483,0.21483 0 0 1 -0.42943,0 0.21483,0.21483 0 0 1 0.20825,-0.21497 z m 0.72451,0.25476 a 0.21482728,0.21482728 0 0 1 0.22014,0.21601 0.214975,0.214975 0 1 1 -0.42995,0 0.21482728,0.21482728 0 0 1 0.20981,-0.21601 z m 0.72347,0.2558 a 0.21482735,0.21482735 0 0 1 0.22014,0.21601 0.214975,0.214975 0 1 1 -0.42995,0 0.21482735,0.21482735 0 0 1 0.20981,-0.21601 z m 0.72243,0.25683 a 0.21483,0.21483 0 0 1 0.22066,0.21498 0.21483,0.21483 0 0 1 -0.42943,0 0.21483,0.21483 0 0 1 0.20877,-0.21498 z"
                 id="path7753"
                 inkscape:connector-curvature="0" />
              <path
                 style="fill:#808080;fill-opacity:1;stroke:none;stroke-width:0.0162399"
                 d="m 134.90546,177.51474 a 0.38362278,0.38362278 0 0 0 -0.18242,0.0512 l -1.32912,0.76739 a 0.38374621,0.38374621 0 1 0 0.38344,0.66456 l 1.32912,-0.76739 a 0.38362278,0.38362278 0 0 0 -0.20102,-0.71572 z m 0.003,0.16846 a 0.21483,0.21483 0 0 1 0.22066,0.21498 0.21483,0.21483 0 0 1 -0.42944,0 0.21483,0.21483 0 0 1 0.20878,-0.21498 z m -0.66456,0.38396 a 0.21482999,0.21482999 0 0 1 0.22117,0.21446 0.214975,0.214975 0 0 1 -0.42995,0 0.21482999,0.21482999 0 0 1 0.20878,-0.21446 z m -0.66353,0.38241 a 0.21482728,0.21482728 0 0 1 0.22014,0.216 0.214975,0.214975 0 1 1 -0.42995,0 0.21482728,0.21482728 0 0 1 0.20981,-0.216 z"
                 id="path7777"
                 inkscape:connector-curvature="0" />
              <path
                 style="fill:#808080;fill-opacity:1;stroke:none;stroke-width:0.0162399"
                 d="m 130.71553,177.51474 a 0.38364329,0.38364329 0 0 0 -0.185,0.71572 l 1.3286,0.76739 a 0.38375294,0.38375294 0 0 0 0.38396,-0.66456 l -1.32912,-0.76739 a 0.38364329,0.38364329 0 0 0 -0.19844,-0.0512 z m 0.002,0.16743 a 0.21482735,0.21482735 0 0 1 0.22014,0.21601 0.21497396,0.21497396 0 1 1 -0.42994,0 0.21482735,0.21482735 0 0 1 0.2098,-0.21601 z m 0.66353,0.38499 a 0.21483,0.21483 0 0 1 0.22117,0.21446 0.214975,0.214975 0 0 1 -0.42995,0 0.21483,0.21483 0 0 1 0.20878,-0.21446 z m 0.66559,0.38241 a 0.21482735,0.21482735 0 0 1 0.22014,0.216 0.214975,0.214975 0 1 1 -0.42995,0 0.21482735,0.21482735 0 0 1 0.20981,-0.216 z"
                 id="path7781"
                 inkscape:connector-curvature="0" />
              <path
                 style="fill:#808080;fill-opacity:1;stroke:none;stroke-width:0.0162399"
                 d="m 132.10305,172.14404 c 0.0953,0.0527 0.17094,0.13692 0.20877,0.23823 0.0656,0.17537 0.0215,0.39704 -0.1912,0.51986 l -0.015,0.009 h 1.13792 l -0.015,-0.009 c -0.19022,-0.11117 -0.24877,-0.31854 -0.19947,-0.49248 0.0309,-0.10916 0.0969,-0.20696 0.21239,-0.26561 z m 0.5612,0.16846 a 0.21483,0.21483 0 0 1 0.22118,0.21498 0.214975,0.214975 0 0 1 -0.42995,0 0.21483,0.21483 0 0 1 0.20877,-0.21498 z"
                 id="path8377"
                 inkscape:connector-curvature="0" />
              <path
                 style="fill:#808080;fill-opacity:1;stroke:none;stroke-width:0.0162399"
                 d="m 130.19102,173.49383 v 1.13172 c 0.068,-0.13041 0.20129,-0.22969 0.38292,-0.22996 0.0456,0 0.0945,0.007 0.1447,0.0253 l 0.23926,0.0842 v -0.93017 l -0.16692,0.0961 c -0.12155,0.0702 -0.24543,0.0776 -0.34984,0.0429 -0.10441,-0.0347 -0.18835,-0.11038 -0.24185,-0.20308 -0.003,-0.005 -0.005,-0.0115 -0.008,-0.0171 z m 0.37724,0.35347 a 0.21482999,0.21482999 0 0 1 0.22118,0.21446 0.214975,0.214975 0 0 1 -0.42995,0 0.21482999,0.21482999 0 0 1 0.20877,-0.21446 z"
                 id="path8458"
                 inkscape:connector-curvature="0" />
              <path
                 style="fill:#808080;fill-opacity:1;stroke:none;stroke-width:0.0162399"
                 d="m 135.2982,176.53598 c -0.0376,0.0857 -0.0998,0.16131 -0.18345,0.20877 -0.0939,0.0533 -0.21381,0.0688 -0.34365,0.0274 l -0.24029,-0.0847 v 0.93172 l 0.1664,-0.0961 c 0.0893,-0.0578 0.21656,-0.06 0.26824,-0.0563 0.15278,0.0108 0.26861,0.12019 0.33279,0.24236 z m -0.38964,0.38033 c 0.12077,-0.003 0.2205,0.0936 0.22066,0.21446 -0.009,0.27707 -0.42036,0.27707 -0.42943,0 1.5e-4,-0.11618 0.0926,-0.21118 0.20877,-0.21446 z"
                 id="path8523"
                 inkscape:connector-curvature="0"
                 sodipodi:nodetypes="ccccccscccccc" />
              <path
                 style="fill:#808080;fill-opacity:1;stroke:none;stroke-width:0.0162399"
                 d="m 132.25136,178.2816 0.016,0.009 c 0.12109,0.0704 0.19091,0.17347 0.21291,0.28112 0.022,0.10764 -10e-4,0.21808 -0.0548,0.31058 -0.0392,0.0678 -0.0952,0.12612 -0.1633,0.1664 h 1.09554 c -0.0647,-0.0407 -0.11889,-0.0975 -0.15658,-0.16278 -0.0547,-0.0942 -0.0763,-0.20705 -0.0527,-0.31626 0.0236,-0.1092 0.0963,-0.21242 0.22273,-0.28112 l 0.0124,-0.007 z m 0.56069,0.16898 a 0.21483,0.21483 0 0 1 0.22117,0.21498 0.21483,0.21483 0 0 1 -0.42943,0 0.21483,0.21483 0 0 1 0.20826,-0.21498 z"
                 id="path8536"
                 inkscape:connector-curvature="0" />
            </g>
            <g
               id="g2090">
              <path
                 style="fill:#808080;fill-opacity:1;stroke:none;stroke-width:0.0162399"
                 d="m 136.31388,172.14401 a 0.38362014,0.38362014 0 0 0 0.0155,0.76688 h 4.60333 a 0.38362014,0.38362014 0 0 0 0,-0.76688 h -4.60333 a 0.38362014,0.38362014 0 0 0 -0.0155,0 z m 1.54461,0.16795 a 0.2148273,0.2148273 0 0 1 0.22014,0.21549 0.2148273,0.2148273 0 1 1 -0.42943,0 0.2148273,0.2148273 0 0 1 0.20929,-0.21549 z m 0.7674,0 a 0.2148273,0.2148273 0 0 1 0.22014,0.21549 0.214975,0.214975 0 1 1 -0.42995,0 0.2148273,0.2148273 0 0 1 0.20981,-0.21549 z m 0.76739,0 a 0.2148273,0.2148273 0 0 1 0.21963,0.21549 0.21482728,0.21482728 0 1 1 -0.42944,0 0.2148273,0.2148273 0 0 1 0.20981,-0.21549 z m 0.76688,0 a 0.21482728,0.21482728 0 0 1 0.22014,0.21549 0.2148273,0.2148273 0 1 1 -0.42943,0 0.21482728,0.21482728 0 0 1 0.20929,-0.21549 z m 0.76739,0 a 0.21482728,0.21482728 0 0 1 0.22015,0.21549 0.214975,0.214975 0 1 1 -0.42995,0 0.21482728,0.21482728 0 0 1 0.2098,-0.21549 z m -4.60437,5.3e-4 a 0.21483,0.21483 0 0 1 0.22118,0.21497 0.214975,0.214975 0 0 1 -0.42995,0 0.21483,0.21483 0 0 1 0.20877,-0.21497 z m 0.7674,0 a 0.21483,0.21483 0 0 1 0.22066,0.21497 0.21483,0.21483 0 1 1 -0.42943,0 0.21483,0.21483 0 0 1 0.20877,-0.21497 z"
                 id="path7385"
                 inkscape:connector-curvature="0" />
              <path
                 style="fill:#808080;fill-opacity:1;stroke:none;stroke-width:0.0162399"
                 d="m 138.24762,172.96158 v 5.70404 c 5.2e-4,0.51097 0.76635,0.51097 0.76688,0 v -5.70404 z m 0.37827,0.1173 a 0.2148273,0.2148273 0 0 1 0.22014,0.21601 0.214975,0.214975 0 0 1 -0.42995,0 0.2148273,0.2148273 0 0 1 0.20981,-0.21601 z m 0,0.7674 a 0.2148273,0.2148273 0 0 1 0.22014,0.21549 0.214975,0.214975 0 0 1 -0.42995,0 0.2148273,0.2148273 0 0 1 0.20981,-0.21549 z m 0,0.76739 a 0.2148273,0.2148273 0 0 1 0.22014,0.21549 0.214975,0.214975 0 0 1 -0.42995,0 0.2148273,0.2148273 0 0 1 0.20981,-0.21549 z m 0,0.76688 a 0.2148273,0.2148273 0 0 1 0.22014,0.21601 0.214975,0.214975 0 0 1 -0.42995,0 0.2148273,0.2148273 0 0 1 0.20981,-0.21601 z m 0,0.7674 a 0.2148273,0.2148273 0 0 1 0.22014,0.21601 0.214975,0.214975 0 0 1 -0.42995,0 0.2148273,0.2148273 0 0 1 0.20981,-0.21601 z m 0,0.76739 a 0.2148273,0.2148273 0 0 1 0.22014,0.21549 0.214975,0.214975 0 0 1 -0.42995,0 0.2148273,0.2148273 0 0 1 0.20981,-0.21549 z m 0,0.76688 a 0.2148273,0.2148273 0 0 1 0.22014,0.21601 0.214975,0.214975 0 0 1 -0.42995,0 0.2148273,0.2148273 0 0 1 0.20981,-0.21601 z m 0,0.7674 a 0.2148273,0.2148273 0 0 1 0.22014,0.216 0.214975,0.214975 0 0 1 -0.42995,0 0.2148273,0.2148273 0 0 1 0.20981,-0.216 z"
                 id="path8564"
                 inkscape:connector-curvature="0" />
            </g>
            <g
               id="g2096">
              <path
                 style="fill:#808080;fill-opacity:1;stroke:none;stroke-width:0.0162399"
                 d="m 143.14474,178.28162 v 0.38447 0.001 c -0.004,0.13631 -0.06,0.24443 -0.1416,0.31523 -0.0261,0.0226 -0.0551,0.0401 -0.0853,0.0553 h 3.62923 c 0.51097,-5.3e-4 0.51097,-0.7555 0,-0.75603 z m 0.32814,0.16795 c 0.12118,-0.003 0.22085,0.0948 0.22014,0.216 0.01,0.29566 -0.43895,0.29566 -0.42943,0 -7.9e-4,-0.11697 0.0924,-0.21299 0.20929,-0.216 z m 0.7674,0 c 0.12118,-0.003 0.22084,0.0948 0.22014,0.216 0.01,0.29566 -0.43895,0.29566 -0.42943,0 -8e-4,-0.11697 0.0924,-0.21299 0.20929,-0.216 z m 0.76739,0 c 0.12118,-0.003 0.22085,0.0948 0.22014,0.216 0,0.28663 -0.42994,0.28663 -0.42994,0 -8e-4,-0.11717 0.0927,-0.21327 0.2098,-0.216 z m 0.7674,0 c 0.12098,-0.003 0.22031,0.095 0.21962,0.216 0.01,0.29566 -0.43895,0.29566 -0.42943,0 -7.9e-4,-0.11717 0.0927,-0.21327 0.20981,-0.216 z m 0.76687,0 c 0.12119,-0.003 0.22085,0.0948 0.22015,0.216 0.01,0.29566 -0.43896,0.29566 -0.42943,0 -8e-4,-0.11697 0.0923,-0.21299 0.20928,-0.216 z"
                 id="path7491"
                 inkscape:connector-curvature="0" />
              <path
                 style="fill:#808080;fill-opacity:1;stroke:none;stroke-width:0.0162399"
                 d="m 143.14474,175.21255 v 0.7674 h 2.6355 c 0.51104,-5.3e-4 0.51104,-0.76785 0,-0.7674 z m 0.32814,0.16795 a 0.21482728,0.21482728 0 0 1 0.22014,0.21601 0.21482729,0.21482729 0 1 1 -0.42943,0 0.21482728,0.21482728 0 0 1 0.20929,-0.21601 z m 0.7674,0 a 0.21482734,0.21482734 0 0 1 0.22014,0.21601 0.21482734,0.21482734 0 1 1 -0.42943,0 0.21482734,0.21482734 0 0 1 0.20929,-0.21601 z m 0.76739,0 a 0.21482734,0.21482734 0 0 1 0.22014,0.21601 0.21497396,0.21497396 0 0 1 -0.42994,0 0.21482734,0.21482734 0 0 1 0.2098,-0.21601 z m 0.7674,0 a 0.21482734,0.21482734 0 0 1 0.21962,0.21601 0.21482734,0.21482734 0 1 1 -0.42943,0 0.21482734,0.21482734 0 0 1 0.20981,-0.21601 z"
                 id="path7505"
                 inkscape:connector-curvature="0" />
              <path
                 style="fill:#808080;fill-opacity:1;stroke:none;stroke-width:0.0162399"
                 d="m 142.90754,172.14401 c 0.13957,0.0719 0.23696,0.21558 0.2372,0.38344 v 0.38344 h 3.40237 c 0.51104,-5.3e-4 0.51104,-0.76733 0,-0.76688 z m 0.56534,0.16795 a 0.21482727,0.21482727 0 0 1 0.22014,0.21549 0.21482729,0.21482729 0 1 1 -0.42943,0 0.21482727,0.21482727 0 0 1 0.20929,-0.21549 z m 0.7674,0 a 0.21482734,0.21482734 0 0 1 0.22014,0.21549 0.21482734,0.21482734 0 1 1 -0.42943,0 0.21482734,0.21482734 0 0 1 0.20929,-0.21549 z m 0.76739,0 a 0.21482734,0.21482734 0 0 1 0.22014,0.21549 0.21497396,0.21497396 0 0 1 -0.42994,0 0.21482734,0.21482734 0 0 1 0.2098,-0.21549 z m 0.7674,0 a 0.21482734,0.21482734 0 0 1 0.21962,0.21549 0.21482734,0.21482734 0 1 1 -0.42943,0 0.21482734,0.21482734 0 0 1 0.20981,-0.21549 z m 0.76687,0 a 0.21482734,0.21482734 0 0 1 0.22015,0.21549 0.21482734,0.21482734 0 1 1 -0.42943,0 0.21482734,0.21482734 0 0 1 0.20928,-0.21549 z"
                 id="path7475"
                 inkscape:connector-curvature="0" />
              <path
                 id="path8571"
                 d="m 142.69981,172.14452 a 0.38362014,0.38362014 0 0 0 -0.37207,0.38293 v 6.13812 a 0.38362014,0.38362014 0 0 0 0.76687,0 v -6.13812 a 0.38362014,0.38362014 0 0 0 -0.3948,-0.38293 z m 0.005,0.16795 a 0.21483,0.21483 0 0 1 0.22118,0.21498 0.214975,0.214975 0 0 1 -0.42995,0 0.21483,0.21483 0 0 1 0.20877,-0.21498 z m 0,0.7674 a 0.21483,0.21483 0 0 1 0.22118,0.21497 0.214975,0.214975 0 0 1 -0.42995,0 0.21483,0.21483 0 0 1 0.20877,-0.21497 z m 0,0.76739 a 0.21483,0.21483 0 0 1 0.22118,0.21446 0.214975,0.214975 0 0 1 -0.42995,0 0.21483,0.21483 0 0 1 0.20877,-0.21446 z m 0,0.7674 a 0.21483,0.21483 0 0 1 0.22118,0.21445 0.214975,0.214975 0 0 1 -0.42995,0 0.21483,0.21483 0 0 1 0.20877,-0.21445 z m 0,0.76688 a 0.21483,0.21483 0 0 1 0.22118,0.21497 0.214975,0.214975 0 0 1 -0.42995,0 0.21483,0.21483 0 0 1 0.20877,-0.21497 z m 0,0.76739 a 0.21483,0.21483 0 0 1 0.22118,0.21498 0.214975,0.214975 0 0 1 -0.42995,0 0.21483,0.21483 0 0 1 0.20877,-0.21498 z m 0,0.7674 a 0.21483,0.21483 0 0 1 0.22118,0.21445 0.214975,0.214975 0 0 1 -0.42995,0 0.21483,0.21483 0 0 1 0.20877,-0.21445 z m 0,0.76687 a 0.21483,0.21483 0 0 1 0.22118,0.21498 0.214975,0.214975 0 0 1 -0.42995,0 0.21483,0.21483 0 0 1 0.20877,-0.21498 z m 0,0.7674 a 0.21483,0.21483 0 0 1 0.22118,0.21497 0.214975,0.214975 0 0 1 -0.42995,0 0.21483,0.21483 0 0 1 0.20877,-0.21497 z"
                 style="fill:#808080;fill-opacity:1;stroke:none;stroke-width:0.0162399"
                 inkscape:connector-curvature="0" />
            </g>
            <g
               id="g2102">
              <path
                 style="fill:#808080;fill-opacity:1;stroke:none;stroke-width:0.0162399"
                 d="m 149.12834,172.50161 c 5.3e-4,0.009 0.003,0.017 0.003,0.0258 v 0.44958 a 0.21482733,0.21482733 0 0 1 0.17002,0.21033 0.21482733,0.21482733 0 0 1 -0.17002,0.21084 v 0.61081 l 1.86139,3.13469 c -5.3e-4,-0.0755 0.0182,-0.15525 0.0651,-0.23409 l 0.34417,-0.57929 z m 0.34726,1.12965 a 0.21482733,0.21482733 0 0 1 0.22015,0.21549 0.21482733,0.21482733 0 1 1 -0.42943,0 0.21482733,0.21482733 0 0 1 0.20928,-0.21549 z m 0.39171,0.65939 a 0.21482733,0.21482733 0 0 1 0.22014,0.216 0.21482733,0.21482733 0 1 1 -0.42943,0 0.21482733,0.21482733 0 0 1 0.20929,-0.216 z m 0.39171,0.65991 a 0.21482733,0.21482733 0 0 1 0.22014,0.21549 0.21482733,0.21482733 0 1 1 -0.42943,0 0.21482733,0.21482733 0 0 1 0.20929,-0.21549 z m 0.39171,0.6599 a 0.21482733,0.21482733 0 0 1 0.22014,0.21549 0.21482733,0.21482733 0 1 1 -0.42943,0 0.21482733,0.21482733 0 0 1 0.20929,-0.21549 z m 0.3917,0.6594 a 0.21482728,0.21482728 0 0 1 0.22015,0.216 0.21482728,0.21482728 0 1 1 -0.42944,0 0.21482728,0.21482728 0 0 1 0.20929,-0.216 z"
                 id="path7675"
                 inkscape:connector-curvature="0" />
              <path
                 style="fill:#808080;fill-opacity:1;stroke:none;stroke-width:0.0162399"
                 d="m 154.54713,172.72279 c -0.005,0.009 -0.006,0.0172 -0.0109,0.0258 v 5.3e-4 l -0.22789,0.38395 a 0.21482735,0.21482735 0 0 1 0.0703,0.15968 0.21482735,0.21482735 0 0 1 -0.28629,0.20413 l -0.31264,0.52658 v 4.64209 c 5.3e-4,0.51097 0.76687,0.51097 0.76739,0 z m -0.38861,1.12344 a 0.21482735,0.21482735 0 0 1 0.22014,0.21549 0.214975,0.214975 0 1 1 -0.42994,0 0.21482735,0.21482735 0 0 1 0.2098,-0.21549 z m 0,0.76739 a 0.21482735,0.21482735 0 0 1 0.22014,0.21549 0.214975,0.214975 0 1 1 -0.42994,0 0.21482735,0.21482735 0 0 1 0.2098,-0.21549 z m 0,0.76688 a 0.21482735,0.21482735 0 0 1 0.22014,0.21601 0.214975,0.214975 0 1 1 -0.42994,0 0.21482735,0.21482735 0 0 1 0.2098,-0.21601 z m 0,0.7674 a 0.21482735,0.21482735 0 0 1 0.22014,0.21549 0.214975,0.214975 0 1 1 -0.42994,0 0.21482735,0.21482735 0 0 1 0.2098,-0.21549 z m 0,0.76739 a 0.21482735,0.21482735 0 0 1 0.22014,0.21549 0.214975,0.214975 0 1 1 -0.42994,0 0.21482735,0.21482735 0 0 1 0.2098,-0.21549 z m 0,0.76688 a 0.21482735,0.21482735 0 0 1 0.22014,0.21601 0.214975,0.214975 0 1 1 -0.42994,0 0.21482735,0.21482735 0 0 1 0.2098,-0.21601 z m 0,0.7674 a 0.21482735,0.21482735 0 0 1 0.22014,0.216 0.214975,0.214975 0 1 1 -0.42994,0 0.21482735,0.21482735 0 0 1 0.2098,-0.216 z"
                 id="path7699"
                 inkscape:connector-curvature="0" />
              <path
                 id="path8582"
                 d="m 148.70873,172.14453 a 0.38362019,0.38362019 0 0 0 -0.39532,0.38292 v 6.13813 a 0.38369742,0.38369742 0 0 0 0.76739,0 v -6.13813 a 0.38362019,0.38362019 0 0 0 -0.37207,-0.38292 z m -0.017,0.16743 a 0.21482735,0.21482735 0 0 1 0.22014,0.21549 0.21482735,0.21482735 0 1 1 -0.42943,0 0.21482735,0.21482735 0 0 1 0.20929,-0.21549 z m 0,0.76688 a 0.21482735,0.21482735 0 0 1 0.22014,0.21601 0.21482735,0.21482735 0 1 1 -0.42943,0 0.21482735,0.21482735 0 0 1 0.20929,-0.21601 z m 0,0.76739 a 0.21482735,0.21482735 0 0 1 0.22014,0.21549 0.21482735,0.21482735 0 1 1 -0.42943,0 0.21482735,0.21482735 0 0 1 0.20929,-0.21549 z m 0,0.7674 a 0.21482735,0.21482735 0 0 1 0.22014,0.21549 0.21482735,0.21482735 0 1 1 -0.42943,0 0.21482735,0.21482735 0 0 1 0.20929,-0.21549 z m 0,0.76688 a 0.21482735,0.21482735 0 0 1 0.22014,0.216 0.21482735,0.21482735 0 1 1 -0.42943,0 0.21482735,0.21482735 0 0 1 0.20929,-0.216 z m 0,0.76739 a 0.21482735,0.21482735 0 0 1 0.22014,0.21601 0.21482735,0.21482735 0 1 1 -0.42943,0 0.21482735,0.21482735 0 0 1 0.20929,-0.21601 z m 0,0.7674 a 0.21482735,0.21482735 0 0 1 0.22014,0.21549 0.21482735,0.21482735 0 1 1 -0.42943,0 0.21482735,0.21482735 0 0 1 0.20929,-0.21549 z m 0,0.76688 a 0.21482735,0.21482735 0 0 1 0.22014,0.216 0.21482735,0.21482735 0 1 1 -0.42943,0 0.21482735,0.21482735 0 0 1 0.20929,-0.216 z m 0,0.76739 a 0.21482735,0.21482735 0 0 1 0.22014,0.21601 0.21482735,0.21482735 0 1 1 -0.42943,0 0.21482735,0.21482735 0 0 1 0.20929,-0.21601 z"
                 style="fill:#808080;fill-opacity:1;stroke:none;stroke-width:0.0162399"
                 inkscape:connector-curvature="0" />
              <path
                 style="fill:#808080;fill-opacity:1;stroke:none;stroke-width:0.0162399"
                 d="m 154.15542,172.13833 c -0.11936,-9.9e-4 -0.23996,0.0553 -0.32143,0.19327 l -2.73368,4.60333 c -0.26022,0.43654 0.39094,0.83051 0.65681,0.39739 l 2.73627,-4.60902 c 0.18073,-0.30267 -0.0754,-0.5828 -0.33797,-0.58497 z m 0.003,0.17363 a 0.21482735,0.21482735 0 0 1 0.22014,0.21549 0.21497396,0.21497396 0 1 1 -0.42994,0 0.21482735,0.21482735 0 0 1 0.2098,-0.21549 z m -0.39171,0.65939 a 0.21482735,0.21482735 0 0 1 0.22015,0.21601 0.214975,0.214975 0 1 1 -0.42995,0 0.21482735,0.21482735 0 0 1 0.2098,-0.21601 z m -0.3917,0.65991 a 0.21482735,0.21482735 0 0 1 0.22014,0.21549 0.214975,0.214975 0 1 1 -0.42995,0 0.21482735,0.21482735 0 0 1 0.20981,-0.21549 z m -0.39171,0.65939 a 0.21482735,0.21482735 0 0 1 0.22014,0.21601 0.214975,0.214975 0 1 1 -0.42995,0 0.21482735,0.21482735 0 0 1 0.20981,-0.21601 z m -0.39171,0.65991 a 0.21482735,0.21482735 0 0 1 0.22014,0.216 0.21497396,0.21497396 0 1 1 -0.42994,0 0.21482735,0.21482735 0 0 1 0.2098,-0.216 z m -0.39274,0.66094 a 0.21483,0.21483 0 0 1 0.22118,0.21446 0.214975,0.214975 0 1 1 -0.42995,0 0.21483,0.21483 0 0 1 0.20877,-0.21446 z m -0.39171,0.65939 a 0.21483,0.21483 0 0 1 0.22118,0.21497 0.214975,0.214975 0 0 1 -0.42995,0 0.21483,0.21483 0 0 1 0.20877,-0.21497 z m -0.38343,0.64544 a 0.21483,0.21483 0 0 1 0.22117,0.21446 0.21483,0.21483 0 1 1 -0.42943,0 0.21483,0.21483 0 0 1 0.20826,-0.21446 z"
                 id="path8587"
                 inkscape:connector-curvature="0" />
            </g>
            <g
               id="g2107">
              <path
                 style="fill:#808080;fill-opacity:1;stroke:none;stroke-width:0.0162399"
                 d="m 156.70979,172.14401 c 0.13981,0.072 0.23748,0.21594 0.23771,0.38395 v 0.38293 h 3.40186 c 0.51104,-5.3e-4 0.51104,-0.76733 0,-0.76688 z m 0.56534,0.16795 a 0.21482734,0.21482734 0 0 1 0.22014,0.21549 0.21482734,0.21482734 0 1 1 -0.42943,0 0.21482734,0.21482734 0 0 1 0.20929,-0.21549 z m 0.76636,5.3e-4 a 0.21483,0.21483 0 0 1 0.22117,0.21497 0.21497396,0.21497396 0 0 1 -0.42994,0 0.21483,0.21483 0 0 1 0.20877,-0.21497 z m 0.7674,0 a 0.21483,0.21483 0 0 1 0.22117,0.21497 0.214975,0.214975 0 0 1 -0.42995,0 0.21483,0.21483 0 0 1 0.20878,-0.21497 z m 0.76687,0 a 0.21483,0.21483 0 0 1 0.22118,0.21497 0.21483,0.21483 0 1 1 -0.42943,0 0.21483,0.21483 0 0 1 0.20825,-0.21497 z m 0.7674,0 a 0.21483,0.21483 0 0 1 0.22117,0.21497 0.21483,0.21483 0 1 1 -0.42943,0 0.21483,0.21483 0 0 1 0.20826,-0.21497 z"
                 id="path8338"
                 inkscape:connector-curvature="0" />
              <path
                 style="fill:#808080;fill-opacity:1;stroke:none;stroke-width:0.0162399"
                 d="m 156.9475,175.21255 v 0.7674 h 2.63498 c 0.51104,-5.3e-4 0.51104,-0.76785 0,-0.7674 z m 0.32763,0.16795 a 0.21482734,0.21482734 0 0 1 0.22014,0.21601 0.21482734,0.21482734 0 1 1 -0.42943,0 0.21482734,0.21482734 0 0 1 0.20929,-0.21601 z m 0.76636,10e-4 a 0.21483,0.21483 0 0 1 0.22117,0.21498 0.21497396,0.21497396 0 0 1 -0.42994,0 0.21483,0.21483 0 0 1 0.20877,-0.21498 z m 0.7674,0 a 0.21483,0.21483 0 0 1 0.22117,0.21498 0.214975,0.214975 0 0 1 -0.42995,0 0.21483,0.21483 0 0 1 0.20878,-0.21498 z m 0.76687,0 a 0.21483,0.21483 0 0 1 0.22118,0.21498 0.21483,0.21483 0 1 1 -0.42943,0 0.21483,0.21483 0 0 1 0.20825,-0.21498 z"
                 id="path7613"
                 inkscape:connector-curvature="0" />
              <path
                 inkscape:connector-curvature="0"
                 id="path8595"
                 d="m 156.50154,172.14453 a 0.38362019,0.38362019 0 0 0 -0.37207,0.38292 v 6.13813 a 0.38369742,0.38369742 0 0 0 0.76739,0 v -6.13813 a 0.38362019,0.38362019 0 0 0 -0.39532,-0.38292 z m 0.007,0.16743 a 0.21482735,0.21482735 0 0 1 0.21962,0.21549 0.21482735,0.21482735 0 1 1 -0.42943,0 0.21482735,0.21482735 0 0 1 0.20981,-0.21549 z m 0,0.76688 a 0.21482735,0.21482735 0 0 1 0.21962,0.21601 0.21482735,0.21482735 0 1 1 -0.42943,0 0.21482735,0.21482735 0 0 1 0.20981,-0.21601 z m 0,0.76739 a 0.21482735,0.21482735 0 0 1 0.21962,0.21549 0.21482735,0.21482735 0 1 1 -0.42943,0 0.21482735,0.21482735 0 0 1 0.20981,-0.21549 z m 0,0.7674 a 0.21482735,0.21482735 0 0 1 0.21962,0.21549 0.21482735,0.21482735 0 1 1 -0.42943,0 0.21482735,0.21482735 0 0 1 0.20981,-0.21549 z m 0,0.76688 a 0.21482735,0.21482735 0 0 1 0.21962,0.216 0.21482735,0.21482735 0 1 1 -0.42943,0 0.21482735,0.21482735 0 0 1 0.20981,-0.216 z m 0,0.76739 a 0.21482735,0.21482735 0 0 1 0.21962,0.21601 0.21482735,0.21482735 0 1 1 -0.42943,0 0.21482735,0.21482735 0 0 1 0.20981,-0.21601 z m 0,0.7674 a 0.21482735,0.21482735 0 0 1 0.21962,0.21549 0.21482735,0.21482735 0 1 1 -0.42943,0 0.21482735,0.21482735 0 0 1 0.20981,-0.21549 z m 0,0.76688 a 0.21482735,0.21482735 0 0 1 0.21962,0.216 0.21482735,0.21482735 0 1 1 -0.42943,0 0.21482735,0.21482735 0 0 1 0.20981,-0.216 z m 0,0.76739 a 0.21482735,0.21482735 0 0 1 0.21962,0.21601 0.21482735,0.21482735 0 1 1 -0.42943,0 0.21482735,0.21482735 0 0 1 0.20981,-0.21601 z"
                 style="fill:#808080;fill-opacity:1;stroke:none;stroke-width:0.0162399" />
            </g>
            <g
               id="g2113">
              <path
                 inkscape:connector-curvature="0"
                 id="path8637"
                 d="m 165.16975,178.28162 v 0.38447 0.001 c -0.004,0.13631 -0.06,0.24443 -0.1416,0.31523 -0.0261,0.0226 -0.0551,0.0401 -0.0853,0.0553 h 3.62923 c 0.51097,-5.3e-4 0.51097,-0.7555 0,-0.75603 z m 0.32814,0.16795 c 0.12118,-0.003 0.22084,0.0948 0.22014,0.216 0.01,0.29566 -0.43895,0.29566 -0.42943,0 -7.9e-4,-0.11697 0.0924,-0.21299 0.20929,-0.216 z m 0.7674,0 c 0.12118,-0.003 0.22084,0.0948 0.22014,0.216 0.01,0.29566 -0.43896,0.29566 -0.42943,0 -8e-4,-0.11697 0.0923,-0.21299 0.20929,-0.216 z m 0.76739,0 c 0.12118,-0.003 0.22084,0.0948 0.22014,0.216 0,0.28663 -0.42994,0.28663 -0.42994,0 -8e-4,-0.11717 0.0927,-0.21327 0.2098,-0.216 z m 0.7674,0 c 0.12097,-0.003 0.22031,0.095 0.21962,0.216 0.01,0.29566 -0.43895,0.29566 -0.42943,0 -7.9e-4,-0.11717 0.0927,-0.21327 0.20981,-0.216 z m 0.76687,0 c 0.12118,-0.003 0.22085,0.0948 0.22015,0.216 0.01,0.29566 -0.43896,0.29566 -0.42944,0 -7.9e-4,-0.11697 0.0924,-0.21299 0.20929,-0.216 z"
                 style="fill:#808080;fill-opacity:1;stroke:none;stroke-width:0.0162399" />
              <path
                 inkscape:connector-curvature="0"
                 id="path8639"
                 d="m 165.16975,175.21255 v 0.7674 h 2.63549 c 0.51104,-5.3e-4 0.51104,-0.76785 0,-0.7674 z m 0.32814,0.16795 a 0.21482728,0.21482728 0 0 1 0.22014,0.21601 0.21482729,0.21482729 0 1 1 -0.42943,0 0.21482728,0.21482728 0 0 1 0.20929,-0.21601 z m 0.7674,0 a 0.21482734,0.21482734 0 0 1 0.22014,0.21601 0.21482734,0.21482734 0 1 1 -0.42943,0 0.21482734,0.21482734 0 0 1 0.20929,-0.21601 z m 0.76739,0 a 0.21482734,0.21482734 0 0 1 0.22014,0.21601 0.21497396,0.21497396 0 0 1 -0.42994,0 0.21482734,0.21482734 0 0 1 0.2098,-0.21601 z m 0.7674,0 a 0.21482734,0.21482734 0 0 1 0.21962,0.21601 0.21482734,0.21482734 0 1 1 -0.42943,0 0.21482734,0.21482734 0 0 1 0.20981,-0.21601 z"
                 style="fill:#808080;fill-opacity:1;stroke:none;stroke-width:0.0162399" />
              <path
                 inkscape:connector-curvature="0"
                 id="path8641"
                 d="m 164.93255,172.14401 c 0.13957,0.0719 0.23696,0.21558 0.2372,0.38344 v 0.38344 h 3.40237 c 0.51104,-5.3e-4 0.51104,-0.76733 0,-0.76688 z m 0.56534,0.16795 a 0.21482727,0.21482727 0 0 1 0.22014,0.21549 0.21482729,0.21482729 0 1 1 -0.42943,0 0.21482727,0.21482727 0 0 1 0.20929,-0.21549 z m 0.7674,0 a 0.21482734,0.21482734 0 0 1 0.22014,0.21549 0.21482734,0.21482734 0 1 1 -0.42943,0 0.21482734,0.21482734 0 0 1 0.20929,-0.21549 z m 0.76739,0 a 0.21482734,0.21482734 0 0 1 0.22014,0.21549 0.21497396,0.21497396 0 0 1 -0.42994,0 0.21482734,0.21482734 0 0 1 0.2098,-0.21549 z m 0.7674,0 a 0.21482734,0.21482734 0 0 1 0.21962,0.21549 0.21482734,0.21482734 0 1 1 -0.42943,0 0.21482734,0.21482734 0 0 1 0.20981,-0.21549 z m 0.76687,0 a 0.21482734,0.21482734 0 0 1 0.22015,0.21549 0.21482734,0.21482734 0 1 1 -0.42944,0 0.21482734,0.21482734 0 0 1 0.20929,-0.21549 z"
                 style="fill:#808080;fill-opacity:1;stroke:none;stroke-width:0.0162399" />
              <path
                 inkscape:connector-curvature="0"
                 style="fill:#808080;fill-opacity:1;stroke:none;stroke-width:0.0162399"
                 d="m 164.72481,172.14452 a 0.38362014,0.38362014 0 0 0 -0.37207,0.38293 v 6.13812 a 0.38362014,0.38362014 0 0 0 0.76687,0 v -6.13812 a 0.38362014,0.38362014 0 0 0 -0.3948,-0.38293 z m 0.005,0.16795 a 0.21483,0.21483 0 0 1 0.22118,0.21498 0.214975,0.214975 0 0 1 -0.42994,0 0.21483,0.21483 0 0 1 0.20876,-0.21498 z m 0,0.7674 a 0.21483,0.21483 0 0 1 0.22118,0.21497 0.214975,0.214975 0 0 1 -0.42994,0 0.21483,0.21483 0 0 1 0.20876,-0.21497 z m 0,0.76739 a 0.21483,0.21483 0 0 1 0.22118,0.21446 0.214975,0.214975 0 0 1 -0.42994,0 0.21483,0.21483 0 0 1 0.20876,-0.21446 z m 0,0.7674 a 0.21483,0.21483 0 0 1 0.22118,0.21445 0.214975,0.214975 0 0 1 -0.42994,0 0.21483,0.21483 0 0 1 0.20876,-0.21445 z m 0,0.76688 a 0.21483,0.21483 0 0 1 0.22118,0.21497 0.214975,0.214975 0 0 1 -0.42994,0 0.21483,0.21483 0 0 1 0.20876,-0.21497 z m 0,0.76739 a 0.21483,0.21483 0 0 1 0.22118,0.21498 0.214975,0.214975 0 0 1 -0.42994,0 0.21483,0.21483 0 0 1 0.20876,-0.21498 z m 0,0.7674 a 0.21483,0.21483 0 0 1 0.22118,0.21445 0.214975,0.214975 0 0 1 -0.42994,0 0.21483,0.21483 0 0 1 0.20876,-0.21445 z m 0,0.76687 a 0.21483,0.21483 0 0 1 0.22118,0.21498 0.214975,0.214975 0 0 1 -0.42994,0 0.21483,0.21483 0 0 1 0.20876,-0.21498 z m 0,0.7674 a 0.21483,0.21483 0 0 1 0.22118,0.21497 0.214975,0.214975 0 0 1 -0.42994,0 0.21483,0.21483 0 0 1 0.20876,-0.21497 z"
                 id="path8643" />
            </g>
          </g>
          <g
             aria-label="®"
             style="font-style:normal;font-variant:normal;font-weight:normal;font-stretch:normal;font-size:5.48131px;line-height:1.25;font-family:sans-serif;-inkscape-font-specification:'sans-serif, Normal';font-variant-ligatures:normal;font-variant-caps:normal;font-variant-numeric:normal;font-feature-settings:normal;text-align:center;letter-spacing:0px;word-spacing:0px;writing-mode:lr-tb;text-anchor:middle;fill:#808080;fill-opacity:1;stroke:none;stroke-width:0.137033"
             id="text1075"
             transform="matrix(2.8944975,0,0,2.8944975,-322.37352,-375.00268)">
            <path
               d="m 170.97517,188.51396 c 0.18058,0 0.33576,0.0649 0.46551,0.19463 0.12974,0.12916 0.19461,0.28462 0.19461,0.46638 0,0.18177 -0.0646,0.33752 -0.19374,0.46727 -0.12916,0.12974 -0.28463,0.19462 -0.46638,0.19462 -0.18235,0 -0.33839,-0.0646 -0.46814,-0.19374 -0.12975,-0.12975 -0.19463,-0.28581 -0.19463,-0.46815 0,-0.18235 0.0649,-0.3381 0.19463,-0.46725 0.13032,-0.12917 0.28637,-0.19376 0.46814,-0.19376 z m -0.001,1.2142 c 0.15136,0 0.28111,-0.054 0.38924,-0.16219 0.10871,-0.10871 0.16306,-0.23905 0.16306,-0.391 0,-0.15196 -0.054,-0.28169 -0.16219,-0.38923 -0.10809,-0.10809 -0.23816,-0.16219 -0.39011,-0.16219 -0.15196,0 -0.282,0.0541 -0.39012,0.16219 -0.10748,0.10748 -0.1613,0.23727 -0.1613,0.38923 0,0.15195 0.0538,0.28229 0.1613,0.391 0.10809,0.10809 0.23816,0.16219 0.39012,0.16219 z m 0.32859,-0.19392 h -0.1315 l -0.0553,-0.15517 c -0.0333,-0.0929 -0.0962,-0.13939 -0.18849,-0.13939 h -0.0903 v 0.29456 h -0.11485 v -0.71099 h 0.2674 c 0.18818,0 0.28228,0.0652 0.28228,0.1955 0,0.12566 -0.0617,0.19317 -0.18498,0.20251 0.0631,0.0193 0.10994,0.0644 0.14027,0.13501 z m -0.46551,-0.39363 h 0.14377 c 0.11276,0 0.1692,-0.0371 0.1692,-0.11128 0,-0.0731 -0.0582,-0.10957 -0.17446,-0.10957 h -0.13851 z"
               style="font-style:normal;font-variant:normal;font-weight:normal;font-stretch:normal;font-size:1.46168px;font-family:'Microsoft Sans Serif';-inkscape-font-specification:'Microsoft Sans Serif';fill:#808080;fill-opacity:1;stroke-width:0.168321"
               id="path1079"
               inkscape:connector-curvature="0"
               sodipodi:nodetypes="scscscscsssscscscscccsccccssccccssscc" />
          </g>
        </g>
      </g>
    </g>
  </g>
</svg>
